<svg width="121" height="29" viewBox="0 0 121 29" fill="none" xmlns="http://www.w3.org/2000/svg">
<path d="M4.728 5.77C5.764 5.77 6.66933 5.97067 7.444 6.372C8.228 6.764 8.83 7.33333 9.25 8.08C9.67933 8.81733 9.894 9.68067 9.894 10.67C9.894 11.6593 9.67933 12.518 9.25 13.246C8.83 13.974 8.228 14.534 7.444 14.926C6.66933 15.3087 5.764 15.5 4.728 15.5H1.55V5.77H4.728ZM4.728 14.198C5.86667 14.198 6.73933 13.89 7.346 13.274C7.95267 12.658 8.256 11.79 8.256 10.67C8.256 9.54067 7.95267 8.65867 7.346 8.024C6.73933 7.38933 5.86667 7.072 4.728 7.072H3.146V14.198H4.728ZM14.8218 15.626C14.0938 15.626 13.4358 15.4627 12.8478 15.136C12.2598 14.8 11.7978 14.3333 11.4618 13.736C11.1258 13.1293 10.9578 12.4293 10.9578 11.636C10.9578 10.852 11.1304 10.1567 11.4758 9.55C11.8211 8.94333 12.2924 8.47667 12.8898 8.15C13.4871 7.82333 14.1544 7.66 14.8918 7.66C15.6291 7.66 16.2964 7.82333 16.8938 8.15C17.4911 8.47667 17.9624 8.94333 18.3078 9.55C18.6531 10.1567 18.8258 10.852 18.8258 11.636C18.8258 12.42 18.6484 13.1153 18.2938 13.722C17.9391 14.3287 17.4538 14.8 16.8378 15.136C16.2311 15.4627 15.5591 15.626 14.8218 15.626ZM14.8218 14.24C15.2324 14.24 15.6151 14.142 15.9698 13.946C16.3338 13.75 16.6278 13.456 16.8518 13.064C17.0758 12.672 17.1878 12.196 17.1878 11.636C17.1878 11.076 17.0804 10.6047 16.8658 10.222C16.6511 9.83 16.3664 9.536 16.0118 9.34C15.6571 9.144 15.2744 9.046 14.8638 9.046C14.4531 9.046 14.0704 9.144 13.7158 9.34C13.3704 9.536 13.0951 9.83 12.8898 10.222C12.6844 10.6047 12.5818 11.076 12.5818 11.636C12.5818 12.4667 12.7918 13.1107 13.2118 13.568C13.6411 14.016 14.1778 14.24 14.8218 14.24ZM30.7635 7.786L28.3695 15.5H26.6895L25.1355 9.802L23.5815 15.5H21.9015L19.4935 7.786H21.1175L22.7275 13.988L24.3655 7.786H26.0315L27.5995 13.96L29.1955 7.786H30.7635ZM35.8483 7.66C36.4549 7.66 36.9963 7.786 37.4723 8.038C37.9576 8.29 38.3356 8.66333 38.6063 9.158C38.8769 9.65267 39.0123 10.25 39.0123 10.95V15.5H37.4303V11.188C37.4303 10.4973 37.2576 9.97 36.9123 9.606C36.5669 9.23267 36.0956 9.046 35.4983 9.046C34.9009 9.046 34.4249 9.23267 34.0703 9.606C33.7249 9.97 33.5523 10.4973 33.5523 11.188V15.5H31.9563V7.786H33.5523V8.668C33.8136 8.35067 34.1449 8.10333 34.5463 7.926C34.9569 7.74867 35.3909 7.66 35.8483 7.66ZM42.644 5.14V15.5H41.048V5.14H42.644ZM48.0855 15.626C47.3575 15.626 46.6995 15.4627 46.1115 15.136C45.5235 14.8 45.0615 14.3333 44.7255 13.736C44.3895 13.1293 44.2215 12.4293 44.2215 11.636C44.2215 10.852 44.3941 10.1567 44.7395 9.55C45.0848 8.94333 45.5561 8.47667 46.1535 8.15C46.7508 7.82333 47.4181 7.66 48.1555 7.66C48.8928 7.66 49.5601 7.82333 50.1575 8.15C50.7548 8.47667 51.2261 8.94333 51.5715 9.55C51.9168 10.1567 52.0895 10.852 52.0895 11.636C52.0895 12.42 51.9121 13.1153 51.5575 13.722C51.2028 14.3287 50.7175 14.8 50.1015 15.136C49.4948 15.4627 48.8228 15.626 48.0855 15.626ZM48.0855 14.24C48.4961 14.24 48.8788 14.142 49.2335 13.946C49.5975 13.75 49.8915 13.456 50.1155 13.064C50.3395 12.672 50.4515 12.196 50.4515 11.636C50.4515 11.076 50.3441 10.6047 50.1295 10.222C49.9148 9.83 49.6301 9.536 49.2755 9.34C48.9208 9.144 48.5381 9.046 48.1275 9.046C47.7168 9.046 47.3341 9.144 46.9795 9.34C46.6341 9.536 46.3588 9.83 46.1535 10.222C45.9481 10.6047 45.8455 11.076 45.8455 11.636C45.8455 12.4667 46.0555 13.1107 46.4755 13.568C46.9048 14.016 47.4415 14.24 48.0855 14.24ZM53.1352 11.608C53.1352 10.8333 53.2939 10.1473 53.6112 9.55C53.9379 8.95267 54.3765 8.49067 54.9272 8.164C55.4872 7.828 56.1032 7.66 56.7752 7.66C57.3819 7.66 57.9092 7.78133 58.3572 8.024C58.8145 8.25733 59.1785 8.55133 59.4492 8.906V7.786H61.0592V15.5H59.4492V14.352C59.1785 14.716 58.8099 15.0193 58.3432 15.262C57.8765 15.5047 57.3445 15.626 56.7472 15.626C56.0845 15.626 55.4779 15.458 54.9272 15.122C54.3765 14.7767 53.9379 14.3007 53.6112 13.694C53.2939 13.078 53.1352 12.3827 53.1352 11.608ZM59.4492 11.636C59.4492 11.104 59.3372 10.642 59.1132 10.25C58.8985 9.858 58.6139 9.55933 58.2592 9.354C57.9045 9.14867 57.5219 9.046 57.1112 9.046C56.7005 9.046 56.3179 9.14867 55.9632 9.354C55.6085 9.55 55.3192 9.844 55.0952 10.236C54.8805 10.6187 54.7732 11.076 54.7732 11.608C54.7732 12.14 54.8805 12.6067 55.0952 13.008C55.3192 13.4093 55.6085 13.7173 55.9632 13.932C56.3272 14.1373 56.7099 14.24 57.1112 14.24C57.5219 14.24 57.9045 14.1373 58.2592 13.932C58.6139 13.7267 58.8985 13.428 59.1132 13.036C59.3372 12.6347 59.4492 12.168 59.4492 11.636ZM62.6235 11.608C62.6235 10.8333 62.7821 10.1473 63.0995 9.55C63.4261 8.95267 63.8648 8.49067 64.4155 8.164C64.9755 7.828 65.5961 7.66 66.2775 7.66C66.7815 7.66 67.2761 7.772 67.7615 7.996C68.2561 8.21067 68.6481 8.5 68.9375 8.864V5.14H70.5475V15.5H68.9375V14.338C68.6761 14.7113 68.3121 15.0193 67.8455 15.262C67.3881 15.5047 66.8608 15.626 66.2635 15.626C65.5915 15.626 64.9755 15.458 64.4155 15.122C63.8648 14.7767 63.4261 14.3007 63.0995 13.694C62.7821 13.078 62.6235 12.3827 62.6235 11.608ZM68.9375 11.636C68.9375 11.104 68.8255 10.642 68.6015 10.25C68.3868 9.858 68.1021 9.55933 67.7475 9.354C67.3928 9.14867 67.0101 9.046 66.5995 9.046C66.1888 9.046 65.8061 9.14867 65.4515 9.354C65.0968 9.55 64.8075 9.844 64.5835 10.236C64.3688 10.6187 64.2615 11.076 64.2615 11.608C64.2615 12.14 64.3688 12.6067 64.5835 13.008C64.8075 13.4093 65.0968 13.7173 65.4515 13.932C65.8155 14.1373 66.1981 14.24 66.5995 14.24C67.0101 14.24 67.3928 14.1373 67.7475 13.932C68.1021 13.7267 68.3868 13.428 68.6015 13.036C68.8255 12.6347 68.9375 12.168 68.9375 11.636ZM75.7485 10.614C75.7485 9.662 75.9678 8.808 76.4065 8.052C76.8545 7.296 77.4565 6.708 78.2125 6.288C78.9778 5.85867 79.8131 5.644 80.7185 5.644C81.7545 5.644 82.6738 5.90067 83.4765 6.414C84.2885 6.918 84.8765 7.63667 85.2405 8.57H83.3225C83.0705 8.05667 82.7205 7.674 82.2725 7.422C81.8245 7.17 81.3065 7.044 80.7185 7.044C80.0745 7.044 79.5005 7.18867 78.9965 7.478C78.4925 7.76733 78.0958 8.18267 77.8065 8.724C77.5265 9.26533 77.3865 9.89533 77.3865 10.614C77.3865 11.3327 77.5265 11.9627 77.8065 12.504C78.0958 13.0453 78.4925 13.4653 78.9965 13.764C79.5005 14.0533 80.0745 14.198 80.7185 14.198C81.3065 14.198 81.8245 14.072 82.2725 13.82C82.7205 13.568 83.0705 13.1853 83.3225 12.672H85.2405C84.8765 13.6053 84.2885 14.324 83.4765 14.828C82.6738 15.332 81.7545 15.584 80.7185 15.584C79.8038 15.584 78.9685 15.374 78.2125 14.954C77.4565 14.5247 76.8545 13.932 76.4065 13.176C75.9678 12.42 75.7485 11.566 75.7485 10.614ZM95.4946 5.77L91.8406 15.5H89.9926L86.3246 5.77H88.0326L90.9166 13.862L93.8146 5.77H95.4946Z" fill="#111827"/>
<path fill-rule="evenodd" clip-rule="evenodd" d="M112.793 6.29303C112.981 6.10556 113.235 6.00024 113.5 6.00024C113.765 6.00024 114.019 6.10556 114.207 6.29303L118.207 10.293C118.394 10.4806 118.5 10.7349 118.5 11C118.5 11.2652 118.394 11.5195 118.207 11.707L114.207 15.707C114.018 15.8892 113.766 15.99 113.504 15.9877C113.241 15.9854 112.991 15.8803 112.805 15.6948C112.62 15.5094 112.515 15.2586 112.512 14.9964C112.51 14.7342 112.611 14.4816 112.793 14.293L115.086 12H103.5C103.235 12 102.98 11.8947 102.793 11.7071C102.605 11.5196 102.5 11.2652 102.5 11C102.5 10.7348 102.605 10.4805 102.793 10.2929C102.98 10.1054 103.235 10 103.5 10H115.086L112.793 7.70703C112.606 7.5195 112.5 7.26519 112.5 7.00003C112.5 6.73487 112.606 6.48056 112.793 6.29303Z" fill="#111827"/>
</svg>
