<svg width="279" height="228" viewBox="0 0 279 228" fill="none" xmlns="http://www.w3.org/2000/svg">
<path d="M12.941 114.659C23.5882 109.421 78.9167 107.86 103.618 114.737" stroke="url(#paint0_linear_1221_170)" stroke-width="4" stroke-linecap="round"/>
<path d="M56.0703 7.76C58.4383 7.76 60.5076 8.21867 62.2783 9.136C64.0703 10.032 65.4463 11.3333 66.4062 13.04C67.3876 14.7253 67.8783 16.6987 67.8783 18.96C67.8783 21.2213 67.3876 23.184 66.4062 24.848C65.4463 26.512 64.0703 27.792 62.2783 28.688C60.5076 29.5627 58.4383 30 56.0703 30H48.8063V7.76H56.0703ZM56.0703 27.024C58.6729 27.024 60.6676 26.32 62.0543 24.912C63.4409 23.504 64.1343 21.52 64.1343 18.96C64.1343 16.3787 63.4409 14.3627 62.0543 12.912C60.6676 11.4613 58.6729 10.736 56.0703 10.736H52.4543V27.024H56.0703ZM87.6538 20.752C87.6538 21.4133 87.6111 22.0107 87.5258 22.544H74.0538C74.1604 23.952 74.6831 25.0827 75.6218 25.936C76.5604 26.7893 77.7124 27.216 79.0778 27.216C81.0404 27.216 82.4271 26.3947 83.2378 24.752H87.1737C86.6404 26.3733 85.6698 27.7067 84.2618 28.752C82.8751 29.776 81.1471 30.288 79.0778 30.288C77.3924 30.288 75.8778 29.9147 74.5338 29.168C73.2111 28.4 72.1658 27.3333 71.3978 25.968C70.6511 24.5813 70.2778 22.9813 70.2778 21.168C70.2778 19.3547 70.6404 17.7653 71.3658 16.4C72.1124 15.0133 73.1471 13.9467 74.4698 13.2C75.8138 12.4533 77.3498 12.08 79.0778 12.08C80.7418 12.08 82.2244 12.4427 83.5258 13.168C84.8271 13.8933 85.8404 14.9173 86.5658 16.24C87.2911 17.5413 87.6538 19.0453 87.6538 20.752ZM83.8458 19.6C83.8244 18.256 83.3444 17.1787 82.4058 16.368C81.4671 15.5573 80.3044 15.152 78.9178 15.152C77.6591 15.152 76.5818 15.5573 75.6858 16.368C74.7898 17.1573 74.2564 18.2347 74.0858 19.6H83.8458ZM97.6438 30.288C96.2571 30.288 95.0091 30.0427 93.8998 29.552C92.8118 29.04 91.9478 28.3573 91.3078 27.504C90.6678 26.6293 90.3264 25.6587 90.2838 24.592H94.0598C94.1238 25.3387 94.4758 25.968 95.1158 26.48C95.7771 26.9707 96.5984 27.216 97.5798 27.216C98.6038 27.216 99.3931 27.024 99.9478 26.64C100.524 26.2347 100.812 25.7227 100.812 25.104C100.812 24.4427 100.492 23.952 99.8518 23.632C99.2331 23.312 98.2411 22.96 96.8758 22.576C95.5531 22.2133 94.4758 21.8613 93.6438 21.52C92.8118 21.1787 92.0864 20.656 91.4678 19.952C90.8704 19.248 90.5718 18.32 90.5718 17.168C90.5718 16.2293 90.8491 15.376 91.4038 14.608C91.9584 13.8187 92.7478 13.2 93.7718 12.752C94.8171 12.304 96.0118 12.08 97.3558 12.08C99.3611 12.08 100.972 12.592 102.188 13.616C103.425 14.6187 104.086 15.9947 104.172 17.744H100.524C100.46 16.9547 100.14 16.3253 99.5638 15.856C98.9878 15.3867 98.2091 15.152 97.2278 15.152C96.2678 15.152 95.5318 15.3333 95.0198 15.696C94.5078 16.0587 94.2518 16.5387 94.2518 17.136C94.2518 17.6053 94.4224 18 94.7638 18.32C95.1051 18.64 95.5211 18.896 96.0118 19.088C96.5024 19.2587 97.2278 19.4827 98.1878 19.76C99.4678 20.1013 100.513 20.4533 101.324 20.816C102.156 21.1573 102.87 21.6693 103.468 22.352C104.065 23.0347 104.374 23.9413 104.396 25.072C104.396 26.0747 104.118 26.9707 103.564 27.76C103.009 28.5493 102.22 29.168 101.196 29.616C100.193 30.064 99.0091 30.288 97.6438 30.288ZM124.498 20.752C124.498 21.4133 124.455 22.0107 124.37 22.544H110.898C111.004 23.952 111.527 25.0827 112.466 25.936C113.404 26.7893 114.556 27.216 115.922 27.216C117.884 27.216 119.271 26.3947 120.082 24.752H124.017C123.484 26.3733 122.514 27.7067 121.106 28.752C119.719 29.776 117.991 30.288 115.922 30.288C114.236 30.288 112.722 29.9147 111.378 29.168C110.055 28.4 109.01 27.3333 108.242 25.968C107.495 24.5813 107.122 22.9813 107.122 21.168C107.122 19.3547 107.484 17.7653 108.21 16.4C108.956 15.0133 109.991 13.9467 111.314 13.2C112.658 12.4533 114.194 12.08 115.922 12.08C117.586 12.08 119.068 12.4427 120.37 13.168C121.671 13.8933 122.684 14.9173 123.41 16.24C124.135 17.5413 124.498 19.0453 124.498 20.752ZM120.69 19.6C120.668 18.256 120.188 17.1787 119.25 16.368C118.311 15.5573 117.148 15.152 115.762 15.152C114.503 15.152 113.426 15.5573 112.53 16.368C111.634 17.1573 111.1 18.2347 110.93 19.6H120.69ZM136.984 12.08C138.37 12.08 139.608 12.368 140.696 12.944C141.805 13.52 142.669 14.3733 143.288 15.504C143.906 16.6347 144.216 18 144.216 19.6V30H140.6V20.144C140.6 18.5653 140.205 17.36 139.416 16.528C138.626 15.6747 137.549 15.248 136.184 15.248C134.818 15.248 133.73 15.6747 132.92 16.528C132.13 17.36 131.736 18.5653 131.736 20.144V30H128.088V12.368H131.736V14.384C132.333 13.6587 133.09 13.0933 134.008 12.688C134.946 12.2827 135.938 12.08 136.984 12.08ZM155.685 26.736L160.677 12.368H164.549L157.829 30H153.477L146.789 12.368H150.693L155.685 26.736ZM174.954 30.288C173.29 30.288 171.786 29.9147 170.442 29.168C169.098 28.4 168.042 27.3333 167.274 25.968C166.506 24.5813 166.122 22.9813 166.122 21.168C166.122 19.376 166.517 17.7867 167.306 16.4C168.096 15.0133 169.173 13.9467 170.538 13.2C171.904 12.4533 173.429 12.08 175.114 12.08C176.8 12.08 178.325 12.4533 179.69 13.2C181.056 13.9467 182.133 15.0133 182.922 16.4C183.712 17.7867 184.106 19.376 184.106 21.168C184.106 22.96 183.701 24.5493 182.89 25.936C182.08 27.3227 180.97 28.4 179.562 29.168C178.176 29.9147 176.64 30.288 174.954 30.288ZM174.954 27.12C175.893 27.12 176.768 26.896 177.578 26.448C178.41 26 179.082 25.328 179.594 24.432C180.106 23.536 180.362 22.448 180.362 21.168C180.362 19.888 180.117 18.8107 179.626 17.936C179.136 17.04 178.485 16.368 177.674 15.92C176.864 15.472 175.989 15.248 175.05 15.248C174.112 15.248 173.237 15.472 172.426 15.92C171.637 16.368 171.008 17.04 170.538 17.936C170.069 18.8107 169.834 19.888 169.834 21.168C169.834 23.0667 170.314 24.5387 171.274 25.584C172.256 26.608 173.482 27.12 174.954 27.12ZM191.361 6.32V30H187.713V6.32H191.361ZM202.966 26.736L207.958 12.368H211.83L205.11 30H200.758L194.07 12.368H197.974L202.966 26.736ZM222.236 30.288C220.572 30.288 219.068 29.9147 217.724 29.168C216.38 28.4 215.324 27.3333 214.556 25.968C213.788 24.5813 213.404 22.9813 213.404 21.168C213.404 19.376 213.798 17.7867 214.588 16.4C215.377 15.0133 216.454 13.9467 217.82 13.2C219.185 12.4533 220.71 12.08 222.396 12.08C224.081 12.08 225.606 12.4533 226.972 13.2C228.337 13.9467 229.414 15.0133 230.204 16.4C230.993 17.7867 231.388 19.376 231.388 21.168C231.388 22.96 230.982 24.5493 230.172 25.936C229.361 27.3227 228.252 28.4 226.844 29.168C225.457 29.9147 223.921 30.288 222.236 30.288ZM222.236 27.12C223.174 27.12 224.049 26.896 224.86 26.448C225.692 26 226.364 25.328 226.876 24.432C227.388 23.536 227.644 22.448 227.644 21.168C227.644 19.888 227.398 18.8107 226.908 17.936C226.417 17.04 225.766 16.368 224.956 15.92C224.145 15.472 223.27 15.248 222.332 15.248C221.393 15.248 220.518 15.472 219.708 15.92C218.918 16.368 218.289 17.04 217.82 17.936C217.35 18.8107 217.116 19.888 217.116 21.168C217.116 23.0667 217.596 24.5387 218.556 25.584C219.537 26.608 220.764 27.12 222.236 27.12ZM135.232 58.752C135.232 59.4133 135.189 60.0107 135.104 60.544H121.632C121.739 61.952 122.261 63.0827 123.2 63.936C124.139 64.7893 125.291 65.216 126.656 65.216C128.619 65.216 130.005 64.3947 130.816 62.752H134.752C134.219 64.3733 133.248 65.7067 131.84 66.752C130.453 67.776 128.725 68.288 126.656 68.288C124.971 68.288 123.456 67.9147 122.112 67.168C120.789 66.4 119.744 65.3333 118.976 63.968C118.229 62.5813 117.856 60.9813 117.856 59.168C117.856 57.3547 118.219 55.7653 118.944 54.4C119.691 53.0133 120.725 51.9467 122.048 51.2C123.392 50.4533 124.928 50.08 126.656 50.08C128.32 50.08 129.803 50.4427 131.104 51.168C132.405 51.8933 133.419 52.9173 134.144 54.24C134.869 55.5413 135.232 57.0453 135.232 58.752ZM131.424 57.6C131.403 56.256 130.923 55.1787 129.984 54.368C129.045 53.5573 127.883 53.152 126.496 53.152C125.237 53.152 124.16 53.5573 123.264 54.368C122.368 55.1573 121.835 56.2347 121.664 57.6H131.424ZM145.918 59.104C145.918 57.3333 146.281 55.7653 147.006 54.4C147.753 53.0347 148.756 51.9787 150.014 51.232C151.294 50.464 152.702 50.08 154.238 50.08C155.625 50.08 156.83 50.3573 157.854 50.912C158.9 51.4453 159.732 52.1173 160.35 52.928V50.368H164.03V68H160.35V65.376C159.732 66.208 158.889 66.9013 157.822 67.456C156.756 68.0107 155.54 68.288 154.174 68.288C152.66 68.288 151.273 67.904 150.014 67.136C148.756 66.3467 147.753 65.2587 147.006 63.872C146.281 62.464 145.918 60.8747 145.918 59.104ZM160.35 59.168C160.35 57.952 160.094 56.896 159.582 56C159.092 55.104 158.441 54.4213 157.63 53.952C156.82 53.4827 155.945 53.248 155.006 53.248C154.068 53.248 153.193 53.4827 152.382 53.952C151.572 54.4 150.91 55.072 150.398 55.968C149.908 56.8427 149.662 57.888 149.662 59.104C149.662 60.32 149.908 61.3867 150.398 62.304C150.91 63.2213 151.572 63.9253 152.382 64.416C153.214 64.8853 154.089 65.12 155.006 65.12C155.945 65.12 156.82 64.8853 157.63 64.416C158.441 63.9467 159.092 63.264 159.582 62.368C160.094 61.4507 160.35 60.384 160.35 59.168ZM170.678 48.032C170.017 48.032 169.462 47.808 169.014 47.36C168.566 46.912 168.342 46.3573 168.342 45.696C168.342 45.0347 168.566 44.48 169.014 44.032C169.462 43.584 170.017 43.36 170.678 43.36C171.318 43.36 171.862 43.584 172.31 44.032C172.758 44.48 172.982 45.0347 172.982 45.696C172.982 46.3573 172.758 46.912 172.31 47.36C171.862 47.808 171.318 48.032 170.678 48.032ZM172.47 71.456C172.47 73.184 172.033 74.432 171.158 75.2C170.305 75.9893 169.057 76.384 167.414 76.384H165.526V73.312H166.774C167.521 73.312 168.043 73.1627 168.342 72.864C168.662 72.5867 168.822 72.1173 168.822 71.456V50.368H172.47V71.456ZM193.227 50.368V68H189.579V65.92C189.003 66.6453 188.246 67.2213 187.307 67.648C186.39 68.0533 185.409 68.256 184.363 68.256C182.977 68.256 181.729 67.968 180.619 67.392C179.531 66.816 178.667 65.9627 178.027 64.832C177.409 63.7013 177.099 62.336 177.099 60.736V50.368H180.715V60.192C180.715 61.7707 181.11 62.9867 181.899 63.84C182.689 64.672 183.766 65.088 185.131 65.088C186.497 65.088 187.574 64.672 188.363 63.84C189.174 62.9867 189.579 61.7707 189.579 60.192V50.368H193.227ZM196.825 59.104C196.825 57.3333 197.187 55.7653 197.913 54.4C198.659 53.0347 199.662 51.9787 200.921 51.232C202.201 50.464 203.619 50.08 205.177 50.08C206.329 50.08 207.459 50.336 208.569 50.848C209.699 51.3387 210.595 52 211.257 52.832V44.32H214.937V68H211.257V65.344C210.659 66.1973 209.827 66.9013 208.761 67.456C207.715 68.0107 206.51 68.288 205.145 68.288C203.609 68.288 202.201 67.904 200.921 67.136C199.662 66.3467 198.659 65.2587 197.913 63.872C197.187 62.464 196.825 60.8747 196.825 59.104ZM211.257 59.168C211.257 57.952 211.001 56.896 210.489 56C209.998 55.104 209.347 54.4213 208.537 53.952C207.726 53.4827 206.851 53.248 205.913 53.248C204.974 53.248 204.099 53.4827 203.289 53.952C202.478 54.4 201.817 55.072 201.305 55.968C200.814 56.8427 200.569 57.888 200.569 59.104C200.569 60.32 200.814 61.3867 201.305 62.304C201.817 63.2213 202.478 63.9253 203.289 64.416C204.121 64.8853 204.995 65.12 205.913 65.12C206.851 65.12 207.726 64.8853 208.537 64.416C209.347 63.9467 209.998 63.264 210.489 62.368C211.001 61.4507 211.257 60.384 211.257 59.168ZM227.376 68.288C225.712 68.288 224.208 67.9147 222.864 67.168C221.52 66.4 220.464 65.3333 219.696 63.968C218.928 62.5813 218.544 60.9813 218.544 59.168C218.544 57.376 218.939 55.7867 219.728 54.4C220.517 53.0133 221.595 51.9467 222.96 51.2C224.325 50.4533 225.851 50.08 227.536 50.08C229.221 50.08 230.747 50.4533 232.112 51.2C233.477 51.9467 234.555 53.0133 235.344 54.4C236.133 55.7867 236.528 57.376 236.528 59.168C236.528 60.96 236.123 62.5493 235.312 63.936C234.501 65.3227 233.392 66.4 231.984 67.168C230.597 67.9147 229.061 68.288 227.376 68.288ZM227.376 65.12C228.315 65.12 229.189 64.896 230 64.448C230.832 64 231.504 63.328 232.016 62.432C232.528 61.536 232.784 60.448 232.784 59.168C232.784 57.888 232.539 56.8107 232.048 55.936C231.557 55.04 230.907 54.368 230.096 53.92C229.285 53.472 228.411 53.248 227.472 53.248C226.533 53.248 225.659 53.472 224.848 53.92C224.059 54.368 223.429 55.04 222.96 55.936C222.491 56.8107 222.256 57.888 222.256 59.168C222.256 61.0667 222.736 62.5387 223.696 63.584C224.677 64.608 225.904 65.12 227.376 65.12ZM247.231 59.104C247.231 57.3333 247.594 55.7653 248.319 54.4C249.066 53.0347 250.068 51.9787 251.327 51.232C252.607 50.464 254.015 50.08 255.551 50.08C256.938 50.08 258.143 50.3573 259.167 50.912C260.212 51.4453 261.044 52.1173 261.663 52.928V50.368H265.343V68H261.663V65.376C261.044 66.208 260.202 66.9013 259.135 67.456C258.068 68.0107 256.852 68.288 255.487 68.288C253.972 68.288 252.586 67.904 251.327 67.136C250.068 66.3467 249.066 65.2587 248.319 63.872C247.594 62.464 247.231 60.8747 247.231 59.104ZM261.663 59.168C261.663 57.952 261.407 56.896 260.895 56C260.404 55.104 259.754 54.4213 258.943 53.952C258.132 53.4827 257.258 53.248 256.319 53.248C255.38 53.248 254.506 53.4827 253.695 53.952C252.884 54.4 252.223 55.072 251.711 55.968C251.22 56.8427 250.975 57.888 250.975 59.104C250.975 60.32 251.22 61.3867 251.711 62.304C252.223 63.2213 252.884 63.9253 253.695 64.416C254.527 64.8853 255.402 65.12 256.319 65.12C257.258 65.12 258.132 64.8853 258.943 64.416C259.754 63.9467 260.404 63.264 260.895 62.368C261.407 61.4507 261.663 60.384 261.663 59.168ZM37.934 97.168C37.934 95.3547 38.2967 93.7653 39.022 92.4C39.7687 91.0133 40.7927 89.9467 42.094 89.2C43.3953 88.4533 44.8887 88.08 46.574 88.08C48.7073 88.08 50.4673 88.592 51.854 89.616C53.262 90.6187 54.2113 92.0587 54.702 93.936H50.766C50.446 93.0613 49.934 92.3787 49.23 91.888C48.526 91.3973 47.6407 91.152 46.574 91.152C45.0807 91.152 43.886 91.6853 42.99 92.752C42.1153 93.7973 41.678 95.2693 41.678 97.168C41.678 99.0667 42.1153 100.549 42.99 101.616C43.886 102.683 45.0807 103.216 46.574 103.216C48.686 103.216 50.0833 102.288 50.766 100.432H54.702C54.19 102.224 53.23 103.653 51.822 104.72C50.414 105.765 48.6647 106.288 46.574 106.288C44.8887 106.288 43.3953 105.915 42.094 105.168C40.7927 104.4 39.7687 103.333 39.022 101.968C38.2967 100.581 37.934 98.9813 37.934 97.168ZM65.9855 106.288C64.3215 106.288 62.8175 105.915 61.4735 105.168C60.1295 104.4 59.0735 103.333 58.3055 101.968C57.5375 100.581 57.1535 98.9813 57.1535 97.168C57.1535 95.376 57.5482 93.7867 58.3375 92.4C59.1268 91.0133 60.2042 89.9467 61.5695 89.2C62.9348 88.4533 64.4602 88.08 66.1455 88.08C67.8308 88.08 69.3562 88.4533 70.7215 89.2C72.0868 89.9467 73.1642 91.0133 73.9535 92.4C74.7428 93.7867 75.1375 95.376 75.1375 97.168C75.1375 98.96 74.7322 100.549 73.9215 101.936C73.1108 103.323 72.0015 104.4 70.5935 105.168C69.2068 105.915 67.6708 106.288 65.9855 106.288ZM65.9855 103.12C66.9242 103.12 67.7988 102.896 68.6095 102.448C69.4415 102 70.1135 101.328 70.6255 100.432C71.1375 99.536 71.3935 98.448 71.3935 97.168C71.3935 95.888 71.1482 94.8107 70.6575 93.936C70.1668 93.04 69.5162 92.368 68.7055 91.92C67.8948 91.472 67.0202 91.248 66.0815 91.248C65.1428 91.248 64.2682 91.472 63.4575 91.92C62.6682 92.368 62.0388 93.04 61.5695 93.936C61.1002 94.8107 60.8655 95.888 60.8655 97.168C60.8655 99.0667 61.3455 100.539 62.3055 101.584C63.2868 102.608 64.5135 103.12 65.9855 103.12ZM87.6398 88.08C89.0264 88.08 90.2638 88.368 91.3518 88.944C92.4611 89.52 93.3251 90.3733 93.9438 91.504C94.5624 92.6347 94.8718 94 94.8718 95.6V106H91.2558V96.144C91.2558 94.5653 90.8611 93.36 90.0718 92.528C89.2824 91.6747 88.2051 91.248 86.8398 91.248C85.4744 91.248 84.3864 91.6747 83.5758 92.528C82.7864 93.36 82.3918 94.5653 82.3918 96.144V106H78.7438V88.368H82.3918V90.384C82.9891 89.6587 83.7464 89.0933 84.6638 88.688C85.6024 88.2827 86.5944 88.08 87.6398 88.08ZM105.925 106.288C104.538 106.288 103.29 106.043 102.181 105.552C101.093 105.04 100.229 104.357 99.589 103.504C98.949 102.629 98.6077 101.659 98.565 100.592H102.341C102.405 101.339 102.757 101.968 103.397 102.48C104.058 102.971 104.88 103.216 105.861 103.216C106.885 103.216 107.674 103.024 108.229 102.64C108.805 102.235 109.093 101.723 109.093 101.104C109.093 100.443 108.773 99.952 108.133 99.632C107.514 99.312 106.522 98.96 105.157 98.576C103.834 98.2133 102.757 97.8613 101.925 97.52C101.093 97.1787 100.368 96.656 99.749 95.952C99.1517 95.248 98.853 94.32 98.853 93.168C98.853 92.2293 99.1303 91.376 99.685 90.608C100.24 89.8187 101.029 89.2 102.053 88.752C103.098 88.304 104.293 88.08 105.637 88.08C107.642 88.08 109.253 88.592 110.469 89.616C111.706 90.6187 112.368 91.9947 112.453 93.744H108.805C108.741 92.9547 108.421 92.3253 107.845 91.856C107.269 91.3867 106.49 91.152 105.509 91.152C104.549 91.152 103.813 91.3333 103.301 91.696C102.789 92.0587 102.533 92.5387 102.533 93.136C102.533 93.6053 102.704 94 103.045 94.32C103.386 94.64 103.802 94.896 104.293 95.088C104.784 95.2587 105.509 95.4827 106.469 95.76C107.749 96.1013 108.794 96.4533 109.605 96.816C110.437 97.1573 111.152 97.6693 111.749 98.352C112.346 99.0347 112.656 99.9413 112.677 101.072C112.677 102.075 112.4 102.971 111.845 103.76C111.29 104.549 110.501 105.168 109.477 105.616C108.474 106.064 107.29 106.288 105.925 106.288ZM120.875 91.344V101.104C120.875 101.765 121.024 102.245 121.323 102.544C121.643 102.821 122.176 102.96 122.923 102.96H125.163V106H122.283C120.64 106 119.381 105.616 118.507 104.848C117.632 104.08 117.195 102.832 117.195 101.104V91.344H115.115V88.368H117.195V83.984H120.875V88.368H125.163V91.344H120.875ZM132.173 90.928C132.706 90.032 133.41 89.3387 134.285 88.848C135.181 88.336 136.237 88.08 137.453 88.08V91.856H136.525C135.096 91.856 134.008 92.2187 133.261 92.944C132.536 93.6693 132.173 94.928 132.173 96.72V106H128.525V88.368H132.173V90.928ZM156.774 88.368V106H153.126V103.92C152.55 104.645 151.793 105.221 150.854 105.648C149.937 106.053 148.956 106.256 147.91 106.256C146.524 106.256 145.276 105.968 144.166 105.392C143.078 104.816 142.214 103.963 141.574 102.832C140.956 101.701 140.646 100.336 140.646 98.736V88.368H144.262V98.192C144.262 99.7707 144.657 100.987 145.446 101.84C146.236 102.672 147.313 103.088 148.678 103.088C150.044 103.088 151.121 102.672 151.91 101.84C152.721 100.987 153.126 99.7707 153.126 98.192V88.368H156.774ZM163.444 86.032C162.782 86.032 162.228 85.808 161.78 85.36C161.332 84.912 161.108 84.3573 161.108 83.696C161.108 83.0347 161.332 82.48 161.78 82.032C162.228 81.584 162.782 81.36 163.444 81.36C164.084 81.36 164.628 81.584 165.076 82.032C165.524 82.48 165.748 83.0347 165.748 83.696C165.748 84.3573 165.524 84.912 165.076 85.36C164.628 85.808 164.084 86.032 163.444 86.032ZM165.236 88.368V106H161.588V88.368H165.236ZM173.673 90.928C174.206 90.032 174.91 89.3387 175.785 88.848C176.681 88.336 177.737 88.08 178.953 88.08V91.856H178.025C176.596 91.856 175.508 92.2187 174.761 92.944C174.036 93.6693 173.673 94.928 173.673 96.72V106H170.025V88.368H173.673V90.928ZM206.587 88.368V106H202.939V103.92C202.363 104.645 201.605 105.221 200.667 105.648C199.749 106.053 198.768 106.256 197.723 106.256C196.336 106.256 195.088 105.968 193.979 105.392C192.891 104.816 192.027 103.963 191.387 102.832C190.768 101.701 190.459 100.336 190.459 98.736V88.368H194.075V98.192C194.075 99.7707 194.469 100.987 195.259 101.84C196.048 102.672 197.125 103.088 198.491 103.088C199.856 103.088 200.933 102.672 201.723 101.84C202.533 100.987 202.939 99.7707 202.939 98.192V88.368H206.587ZM232.744 88.08C234.131 88.08 235.368 88.368 236.456 88.944C237.565 89.52 238.429 90.3733 239.048 91.504C239.688 92.6347 240.008 94 240.008 95.6V106H236.392V96.144C236.392 94.5653 235.997 93.36 235.208 92.528C234.419 91.6747 233.341 91.248 231.976 91.248C230.611 91.248 229.523 91.6747 228.712 92.528C227.923 93.36 227.528 94.5653 227.528 96.144V106H223.912V96.144C223.912 94.5653 223.517 93.36 222.728 92.528C221.939 91.6747 220.861 91.248 219.496 91.248C218.131 91.248 217.043 91.6747 216.232 92.528C215.443 93.36 215.048 94.5653 215.048 96.144V106H211.4V88.368H215.048V90.384C215.645 89.6587 216.403 89.0933 217.32 88.688C218.237 88.2827 219.219 88.08 220.264 88.08C221.672 88.08 222.931 88.3787 224.04 88.976C225.149 89.5733 226.003 90.4373 226.6 91.568C227.133 90.5013 227.965 89.6587 229.096 89.04C230.227 88.4 231.443 88.08 232.744 88.08ZM43.1815 126.08C44.5682 126.08 45.8055 126.368 46.8935 126.944C48.0028 127.52 48.8668 128.373 49.4855 129.504C50.1255 130.635 50.4455 132 50.4455 133.6V144H46.8295V134.144C46.8295 132.565 46.4348 131.36 45.6455 130.528C44.8562 129.675 43.7788 129.248 42.4135 129.248C41.0482 129.248 39.9602 129.675 39.1495 130.528C38.3602 131.36 37.9655 132.565 37.9655 134.144V144H34.3495V134.144C34.3495 132.565 33.9548 131.36 33.1655 130.528C32.3762 129.675 31.2988 129.248 29.9335 129.248C28.5682 129.248 27.4802 129.675 26.6695 130.528C25.8802 131.36 25.4855 132.565 25.4855 134.144V144H21.8375V126.368H25.4855V128.384C26.0828 127.659 26.8402 127.093 27.7575 126.688C28.6748 126.283 29.6562 126.08 30.7015 126.08C32.1095 126.08 33.3682 126.379 34.4775 126.976C35.5868 127.573 36.4402 128.437 37.0375 129.568C37.5708 128.501 38.4028 127.659 39.5335 127.04C40.6642 126.4 41.8802 126.08 43.1815 126.08ZM71.0555 126.368V144H67.4075V141.92C66.8315 142.645 66.0742 143.221 65.1355 143.648C64.2182 144.053 63.2368 144.256 62.1915 144.256C60.8048 144.256 59.5568 143.968 58.4475 143.392C57.3595 142.816 56.4955 141.963 55.8555 140.832C55.2368 139.701 54.9275 138.336 54.9275 136.736V126.368H58.5435V136.192C58.5435 137.771 58.9382 138.987 59.7275 139.84C60.5168 140.672 61.5942 141.088 62.9595 141.088C64.3248 141.088 65.4022 140.672 66.1915 139.84C67.0022 138.987 67.4075 137.771 67.4075 136.192V126.368H71.0555ZM84.7648 126.08C86.1514 126.08 87.3888 126.368 88.4768 126.944C89.5861 127.52 90.4501 128.373 91.0688 129.504C91.6874 130.635 91.9968 132 91.9968 133.6V144H88.3808V134.144C88.3808 132.565 87.9861 131.36 87.1968 130.528C86.4074 129.675 85.3301 129.248 83.9648 129.248C82.5994 129.248 81.5114 129.675 80.7008 130.528C79.9114 131.36 79.5168 132.565 79.5168 134.144V144H75.8688V126.368H79.5168V128.384C80.1141 127.659 80.8714 127.093 81.7888 126.688C82.7274 126.283 83.7194 126.08 84.7648 126.08ZM95.434 135.104C95.434 133.333 95.7967 131.765 96.522 130.4C97.2687 129.035 98.2713 127.979 99.53 127.232C100.81 126.464 102.229 126.08 103.786 126.08C104.938 126.08 106.069 126.336 107.178 126.848C108.309 127.339 109.205 128 109.866 128.832V120.32H113.546V144H109.866V141.344C109.269 142.197 108.437 142.901 107.37 143.456C106.325 144.011 105.119 144.288 103.754 144.288C102.218 144.288 100.81 143.904 99.53 143.136C98.2713 142.347 97.2687 141.259 96.522 139.872C95.7967 138.464 95.434 136.875 95.434 135.104ZM109.866 135.168C109.866 133.952 109.61 132.896 109.098 132C108.607 131.104 107.957 130.421 107.146 129.952C106.335 129.483 105.461 129.248 104.522 129.248C103.583 129.248 102.709 129.483 101.898 129.952C101.087 130.4 100.426 131.072 99.914 131.968C99.4233 132.843 99.178 133.888 99.178 135.104C99.178 136.32 99.4233 137.387 99.914 138.304C100.426 139.221 101.087 139.925 101.898 140.416C102.73 140.885 103.605 141.12 104.522 141.12C105.461 141.12 106.335 140.885 107.146 140.416C107.957 139.947 108.607 139.264 109.098 138.368C109.61 137.451 109.866 136.384 109.866 135.168ZM125.986 144.288C124.322 144.288 122.818 143.915 121.474 143.168C120.13 142.4 119.074 141.333 118.306 139.968C117.538 138.581 117.154 136.981 117.154 135.168C117.154 133.376 117.548 131.787 118.338 130.4C119.127 129.013 120.204 127.947 121.57 127.2C122.935 126.453 124.46 126.08 126.146 126.08C127.831 126.08 129.356 126.453 130.722 127.2C132.087 127.947 133.164 129.013 133.954 130.4C134.743 131.787 135.138 133.376 135.138 135.168C135.138 136.96 134.732 138.549 133.922 139.936C133.111 141.323 132.002 142.4 130.594 143.168C129.207 143.915 127.671 144.288 125.986 144.288ZM125.986 141.12C126.924 141.12 127.799 140.896 128.61 140.448C129.442 140 130.114 139.328 130.626 138.432C131.138 137.536 131.394 136.448 131.394 135.168C131.394 133.888 131.148 132.811 130.658 131.936C130.167 131.04 129.516 130.368 128.706 129.92C127.895 129.472 127.02 129.248 126.082 129.248C125.143 129.248 124.268 129.472 123.458 129.92C122.668 130.368 122.039 131.04 121.57 131.936C121.1 132.811 120.866 133.888 120.866 135.168C120.866 137.067 121.346 138.539 122.306 139.584C123.287 140.608 124.514 141.12 125.986 141.12ZM168.4 126.08C169.787 126.08 171.024 126.368 172.112 126.944C173.222 127.52 174.086 128.373 174.704 129.504C175.344 130.635 175.664 132 175.664 133.6V144H172.048V134.144C172.048 132.565 171.654 131.36 170.864 130.528C170.075 129.675 168.998 129.248 167.632 129.248C166.267 129.248 165.179 129.675 164.368 130.528C163.579 131.36 163.184 132.565 163.184 134.144V144H159.568V134.144C159.568 132.565 159.174 131.36 158.384 130.528C157.595 129.675 156.518 129.248 155.152 129.248C153.787 129.248 152.699 129.675 151.888 130.528C151.099 131.36 150.704 132.565 150.704 134.144V144H147.056V126.368H150.704V128.384C151.302 127.659 152.059 127.093 152.976 126.688C153.894 126.283 154.875 126.08 155.92 126.08C157.328 126.08 158.587 126.379 159.696 126.976C160.806 127.573 161.659 128.437 162.256 129.568C162.79 128.501 163.622 127.659 164.752 127.04C165.883 126.4 167.099 126.08 168.4 126.08ZM196.466 134.752C196.466 135.413 196.424 136.011 196.338 136.544H182.866C182.973 137.952 183.496 139.083 184.434 139.936C185.373 140.789 186.525 141.216 187.89 141.216C189.853 141.216 191.24 140.395 192.05 138.752H195.986C195.453 140.373 194.482 141.707 193.074 142.752C191.688 143.776 189.96 144.288 187.89 144.288C186.205 144.288 184.69 143.915 183.346 143.168C182.024 142.4 180.978 141.333 180.21 139.968C179.464 138.581 179.09 136.981 179.09 135.168C179.09 133.355 179.453 131.765 180.178 130.4C180.925 129.013 181.96 127.947 183.282 127.2C184.626 126.453 186.162 126.08 187.89 126.08C189.554 126.08 191.037 126.443 192.338 127.168C193.64 127.893 194.653 128.917 195.378 130.24C196.104 131.541 196.466 133.045 196.466 134.752ZM192.658 133.6C192.637 132.256 192.157 131.179 191.218 130.368C190.28 129.557 189.117 129.152 187.73 129.152C186.472 129.152 185.394 129.557 184.498 130.368C183.602 131.157 183.069 132.235 182.898 133.6H192.658ZM203.704 120.32V144H200.056V120.32H203.704ZM217.614 126.08C218.958 126.08 220.152 126.368 221.198 126.944C222.264 127.52 223.096 128.373 223.694 129.504C224.312 130.635 224.622 132 224.622 133.6V144H221.006V134.144C221.006 132.565 220.611 131.36 219.822 130.528C219.032 129.675 217.955 129.248 216.59 129.248C215.224 129.248 214.136 129.675 213.326 130.528C212.536 131.36 212.142 132.565 212.142 134.144V144H208.494V120.32H212.142V128.416C212.76 127.669 213.539 127.093 214.478 126.688C215.438 126.283 216.483 126.08 217.614 126.08ZM236.923 144.288C235.259 144.288 233.755 143.915 232.411 143.168C231.067 142.4 230.011 141.333 229.243 139.968C228.475 138.581 228.091 136.981 228.091 135.168C228.091 133.376 228.486 131.787 229.275 130.4C230.064 129.013 231.142 127.947 232.507 127.2C233.872 126.453 235.398 126.08 237.083 126.08C238.768 126.08 240.294 126.453 241.659 127.2C243.024 127.947 244.102 129.013 244.891 130.4C245.68 131.787 246.075 133.376 246.075 135.168C246.075 136.96 245.67 138.549 244.859 139.936C244.048 141.323 242.939 142.4 241.531 143.168C240.144 143.915 238.608 144.288 236.923 144.288ZM236.923 141.12C237.862 141.12 238.736 140.896 239.547 140.448C240.379 140 241.051 139.328 241.563 138.432C242.075 137.536 242.331 136.448 242.331 135.168C242.331 133.888 242.086 132.811 241.595 131.936C241.104 131.04 240.454 130.368 239.643 129.92C238.832 129.472 237.958 129.248 237.019 129.248C236.08 129.248 235.206 129.472 234.395 129.92C233.606 130.368 232.976 131.04 232.507 131.936C232.038 132.811 231.803 133.888 231.803 135.168C231.803 137.067 232.283 138.539 233.243 139.584C234.224 140.608 235.451 141.12 236.923 141.12ZM253.329 128.928C253.863 128.032 254.567 127.339 255.441 126.848C256.337 126.336 257.393 126.08 258.609 126.08V129.856H257.681C256.252 129.856 255.164 130.219 254.417 130.944C253.692 131.669 253.329 132.928 253.329 134.72V144H249.681V126.368H253.329V128.928ZM54.059 173.104C54.059 171.333 54.4217 169.765 55.147 168.4C55.8937 167.035 56.8963 165.979 58.155 165.232C59.435 164.464 60.843 164.08 62.379 164.08C63.7657 164.08 64.971 164.357 65.995 164.912C67.0403 165.445 67.8723 166.117 68.491 166.928V164.368H72.171V182H68.491V179.376C67.8723 180.208 67.0297 180.901 65.963 181.456C64.8963 182.011 63.6803 182.288 62.315 182.288C60.8003 182.288 59.4137 181.904 58.155 181.136C56.8963 180.347 55.8937 179.259 55.147 177.872C54.4217 176.464 54.059 174.875 54.059 173.104ZM68.491 173.168C68.491 171.952 68.235 170.896 67.723 170C67.2323 169.104 66.5817 168.421 65.771 167.952C64.9603 167.483 64.0857 167.248 63.147 167.248C62.2083 167.248 61.3337 167.483 60.523 167.952C59.7123 168.4 59.051 169.072 58.539 169.968C58.0483 170.843 57.803 171.888 57.803 173.104C57.803 174.32 58.0483 175.387 58.539 176.304C59.051 177.221 59.7123 177.925 60.523 178.416C61.355 178.885 62.2297 179.12 63.147 179.12C64.0857 179.12 64.9603 178.885 65.771 178.416C66.5817 177.947 67.2323 177.264 67.723 176.368C68.235 175.451 68.491 174.384 68.491 173.168ZM81.2185 167.344V177.104C81.2185 177.765 81.3678 178.245 81.6665 178.544C81.9865 178.821 82.5198 178.96 83.2665 178.96H85.5065V182H82.6265C80.9838 182 79.7252 181.616 78.8505 180.848C77.9758 180.08 77.5385 178.832 77.5385 177.104V167.344H75.4585V164.368H77.5385V159.984H81.2185V164.368H85.5065V167.344H81.2185ZM92.5168 166.928C93.0501 166.032 93.7541 165.339 94.6288 164.848C95.5248 164.336 96.5808 164.08 97.7968 164.08V167.856H96.8688C95.4394 167.856 94.3514 168.219 93.6048 168.944C92.8794 169.669 92.5168 170.928 92.5168 172.72V182H88.8688V164.368H92.5168V166.928ZM99.934 173.104C99.934 171.333 100.297 169.765 101.022 168.4C101.769 167.035 102.771 165.979 104.03 165.232C105.31 164.464 106.718 164.08 108.254 164.08C109.641 164.08 110.846 164.357 111.87 164.912C112.915 165.445 113.747 166.117 114.366 166.928V164.368H118.046V182H114.366V179.376C113.747 180.208 112.905 180.901 111.838 181.456C110.771 182.011 109.555 182.288 108.19 182.288C106.675 182.288 105.289 181.904 104.03 181.136C102.771 180.347 101.769 179.259 101.022 177.872C100.297 176.464 99.934 174.875 99.934 173.104ZM114.366 173.168C114.366 171.952 114.11 170.896 113.598 170C113.107 169.104 112.457 168.421 111.646 167.952C110.835 167.483 109.961 167.248 109.022 167.248C108.083 167.248 107.209 167.483 106.398 167.952C105.587 168.4 104.926 169.072 104.414 169.968C103.923 170.843 103.678 171.888 103.678 173.104C103.678 174.32 103.923 175.387 104.414 176.304C104.926 177.221 105.587 177.925 106.398 178.416C107.23 178.885 108.105 179.12 109.022 179.12C109.961 179.12 110.835 178.885 111.646 178.416C112.457 177.947 113.107 177.264 113.598 176.368C114.11 175.451 114.366 174.384 114.366 173.168ZM129.654 178.736L134.646 164.368H138.517L131.798 182H127.446L120.758 164.368H124.661L129.654 178.736ZM157.435 172.752C157.435 173.413 157.392 174.011 157.307 174.544H143.835C143.942 175.952 144.464 177.083 145.403 177.936C146.342 178.789 147.494 179.216 148.859 179.216C150.822 179.216 152.208 178.395 153.019 176.752H156.955C156.422 178.373 155.451 179.707 154.043 180.752C152.656 181.776 150.928 182.288 148.859 182.288C147.174 182.288 145.659 181.915 144.315 181.168C142.992 180.4 141.947 179.333 141.179 177.968C140.432 176.581 140.059 174.981 140.059 173.168C140.059 171.355 140.422 169.765 141.147 168.4C141.894 167.013 142.928 165.947 144.251 165.2C145.595 164.453 147.131 164.08 148.859 164.08C150.523 164.08 152.006 164.443 153.307 165.168C154.608 165.893 155.622 166.917 156.347 168.24C157.072 169.541 157.435 171.045 157.435 172.752ZM153.627 171.6C153.606 170.256 153.126 169.179 152.187 168.368C151.248 167.557 150.086 167.152 148.699 167.152C147.44 167.152 146.363 167.557 145.467 168.368C144.571 169.157 144.038 170.235 143.867 171.6H153.627ZM152.059 159.632L144.987 163.12V160.432L152.059 156.528V159.632ZM167.425 182.288C166.038 182.288 164.79 182.043 163.681 181.552C162.593 181.04 161.729 180.357 161.089 179.504C160.449 178.629 160.108 177.659 160.065 176.592H163.841C163.905 177.339 164.257 177.968 164.897 178.48C165.558 178.971 166.38 179.216 167.361 179.216C168.385 179.216 169.174 179.024 169.729 178.64C170.305 178.235 170.593 177.723 170.593 177.104C170.593 176.443 170.273 175.952 169.633 175.632C169.014 175.312 168.022 174.96 166.657 174.576C165.334 174.213 164.257 173.861 163.425 173.52C162.593 173.179 161.868 172.656 161.249 171.952C160.652 171.248 160.353 170.32 160.353 169.168C160.353 168.229 160.63 167.376 161.185 166.608C161.74 165.819 162.529 165.2 163.553 164.752C164.598 164.304 165.793 164.08 167.137 164.08C169.142 164.08 170.753 164.592 171.969 165.616C173.206 166.619 173.868 167.995 173.953 169.744H170.305C170.241 168.955 169.921 168.325 169.345 167.856C168.769 167.387 167.99 167.152 167.009 167.152C166.049 167.152 165.313 167.333 164.801 167.696C164.289 168.059 164.033 168.539 164.033 169.136C164.033 169.605 164.204 170 164.545 170.32C164.886 170.64 165.302 170.896 165.793 171.088C166.284 171.259 167.009 171.483 167.969 171.76C169.249 172.101 170.294 172.453 171.105 172.816C171.937 173.157 172.652 173.669 173.249 174.352C173.846 175.035 174.156 175.941 174.177 177.072C174.177 178.075 173.9 178.971 173.345 179.76C172.79 180.549 172.001 181.168 170.977 181.616C169.974 182.064 168.79 182.288 167.425 182.288ZM185.215 173.104C185.215 171.333 185.578 169.765 186.303 168.4C187.05 167.035 188.053 165.979 189.311 165.232C190.591 164.464 192.01 164.08 193.567 164.08C194.719 164.08 195.85 164.336 196.959 164.848C198.09 165.339 198.986 166 199.647 166.832V158.32H203.327V182H199.647V179.344C199.05 180.197 198.218 180.901 197.151 181.456C196.106 182.011 194.901 182.288 193.535 182.288C191.999 182.288 190.591 181.904 189.311 181.136C188.053 180.347 187.05 179.259 186.303 177.872C185.578 176.464 185.215 174.875 185.215 173.104ZM199.647 173.168C199.647 171.952 199.391 170.896 198.879 170C198.389 169.104 197.738 168.421 196.927 167.952C196.117 167.483 195.242 167.248 194.303 167.248C193.365 167.248 192.49 167.483 191.679 167.952C190.869 168.4 190.207 169.072 189.695 169.968C189.205 170.843 188.959 171.888 188.959 173.104C188.959 174.32 189.205 175.387 189.695 176.304C190.207 177.221 190.869 177.925 191.679 178.416C192.511 178.885 193.386 179.12 194.303 179.12C195.242 179.12 196.117 178.885 196.927 178.416C197.738 177.947 198.389 177.264 198.879 176.368C199.391 175.451 199.647 174.384 199.647 173.168ZM215.767 182.288C214.103 182.288 212.599 181.915 211.255 181.168C209.911 180.4 208.855 179.333 208.087 177.968C207.319 176.581 206.935 174.981 206.935 173.168C206.935 171.376 207.329 169.787 208.119 168.4C208.908 167.013 209.985 165.947 211.351 165.2C212.716 164.453 214.241 164.08 215.927 164.08C217.612 164.08 219.137 164.453 220.503 165.2C221.868 165.947 222.945 167.013 223.735 168.4C224.524 169.787 224.919 171.376 224.919 173.168C224.919 174.96 224.513 176.549 223.703 177.936C222.892 179.323 221.783 180.4 220.375 181.168C218.988 181.915 217.452 182.288 215.767 182.288ZM215.767 179.12C216.705 179.12 217.58 178.896 218.391 178.448C219.223 178 219.895 177.328 220.407 176.432C220.919 175.536 221.175 174.448 221.175 173.168C221.175 171.888 220.929 170.811 220.439 169.936C219.948 169.04 219.297 168.368 218.487 167.92C217.676 167.472 216.801 167.248 215.863 167.248C214.924 167.248 214.049 167.472 213.239 167.92C212.449 168.368 211.82 169.04 211.351 169.936C210.881 170.811 210.647 171.888 210.647 173.168C210.647 175.067 211.127 176.539 212.087 177.584C213.068 178.608 214.295 179.12 215.767 179.12ZM74.3625 220.288C72.9758 220.288 71.7278 220.043 70.6185 219.552C69.5305 219.04 68.6665 218.357 68.0265 217.504C67.3865 216.629 67.0452 215.659 67.0025 214.592H70.7785C70.8425 215.339 71.1945 215.968 71.8345 216.48C72.4958 216.971 73.3172 217.216 74.2985 217.216C75.3225 217.216 76.1118 217.024 76.6665 216.64C77.2425 216.235 77.5305 215.723 77.5305 215.104C77.5305 214.443 77.2105 213.952 76.5705 213.632C75.9518 213.312 74.9598 212.96 73.5945 212.576C72.2718 212.213 71.1945 211.861 70.3625 211.52C69.5305 211.179 68.8052 210.656 68.1865 209.952C67.5892 209.248 67.2905 208.32 67.2905 207.168C67.2905 206.229 67.5678 205.376 68.1225 204.608C68.6772 203.819 69.4665 203.2 70.4905 202.752C71.5358 202.304 72.7305 202.08 74.0745 202.08C76.0798 202.08 77.6905 202.592 78.9065 203.616C80.1438 204.619 80.8052 205.995 80.8905 207.744H77.2425C77.1785 206.955 76.8585 206.325 76.2825 205.856C75.7065 205.387 74.9278 205.152 73.9465 205.152C72.9865 205.152 72.2505 205.333 71.7385 205.696C71.2265 206.059 70.9705 206.539 70.9705 207.136C70.9705 207.605 71.1412 208 71.4825 208.32C71.8238 208.64 72.2398 208.896 72.7305 209.088C73.2212 209.259 73.9465 209.483 74.9065 209.76C76.1865 210.101 77.2318 210.453 78.0425 210.816C78.8745 211.157 79.5892 211.669 80.1865 212.352C80.7838 213.035 81.0932 213.941 81.1145 215.072C81.1145 216.075 80.8372 216.971 80.2825 217.76C79.7278 218.549 78.9385 219.168 77.9145 219.616C76.9118 220.064 75.7278 220.288 74.3625 220.288ZM92.7043 220.288C91.0403 220.288 89.5363 219.915 88.1923 219.168C86.8483 218.4 85.7923 217.333 85.0243 215.968C84.2563 214.581 83.8723 212.981 83.8723 211.168C83.8723 209.376 84.2669 207.787 85.0563 206.4C85.8456 205.013 86.9229 203.947 88.2883 203.2C89.6536 202.453 91.1789 202.08 92.8643 202.08C94.5496 202.08 96.0749 202.453 97.4403 203.2C98.8056 203.947 99.8829 205.013 100.672 206.4C101.462 207.787 101.856 209.376 101.856 211.168C101.856 212.96 101.451 214.549 100.64 215.936C99.8296 217.323 98.7203 218.4 97.3123 219.168C95.9256 219.915 94.3896 220.288 92.7043 220.288ZM92.7043 217.12C93.6429 217.12 94.5176 216.896 95.3283 216.448C96.1603 216 96.8323 215.328 97.3443 214.432C97.8563 213.536 98.1123 212.448 98.1123 211.168C98.1123 209.888 97.8669 208.811 97.3763 207.936C96.8856 207.04 96.2349 206.368 95.4243 205.92C94.6136 205.472 93.7389 205.248 92.8003 205.248C91.8616 205.248 90.9869 205.472 90.1763 205.92C89.3869 206.368 88.7576 207.04 88.2883 207.936C87.8189 208.811 87.5843 209.888 87.5843 211.168C87.5843 213.067 88.0643 214.539 89.0243 215.584C90.0056 216.608 91.2323 217.12 92.7043 217.12ZM112.855 205.344H109.591V220H105.911V205.344H103.831V202.368H105.911V201.12C105.911 199.093 106.444 197.621 107.511 196.704C108.599 195.765 110.295 195.296 112.599 195.296V198.336C111.489 198.336 110.711 198.549 110.263 198.976C109.815 199.381 109.591 200.096 109.591 201.12V202.368H112.855V205.344ZM120.344 205.344V215.104C120.344 215.765 120.493 216.245 120.792 216.544C121.112 216.821 121.645 216.96 122.392 216.96H124.632V220H121.752C120.109 220 118.85 219.616 117.976 218.848C117.101 218.08 116.664 216.832 116.664 215.104V205.344H114.584V202.368H116.664V197.984H120.344V202.368H124.632V205.344H120.344ZM151.674 202.368L146.202 220H142.362L138.81 206.976L135.258 220H131.418L125.914 202.368H129.626L133.306 216.544L137.05 202.368H140.858L144.442 216.48L148.09 202.368H151.674ZM153.184 211.104C153.184 209.333 153.547 207.765 154.272 206.4C155.019 205.035 156.021 203.979 157.28 203.232C158.56 202.464 159.968 202.08 161.504 202.08C162.891 202.08 164.096 202.357 165.12 202.912C166.165 203.445 166.997 204.117 167.616 204.928V202.368H171.296V220H167.616V217.376C166.997 218.208 166.155 218.901 165.088 219.456C164.021 220.011 162.805 220.288 161.44 220.288C159.925 220.288 158.539 219.904 157.28 219.136C156.021 218.347 155.019 217.259 154.272 215.872C153.547 214.464 153.184 212.875 153.184 211.104ZM167.616 211.168C167.616 209.952 167.36 208.896 166.848 208C166.357 207.104 165.707 206.421 164.896 205.952C164.085 205.483 163.211 205.248 162.272 205.248C161.333 205.248 160.459 205.483 159.648 205.952C158.837 206.4 158.176 207.072 157.664 207.968C157.173 208.843 156.928 209.888 156.928 211.104C156.928 212.32 157.173 213.387 157.664 214.304C158.176 215.221 158.837 215.925 159.648 216.416C160.48 216.885 161.355 217.12 162.272 217.12C163.211 217.12 164.085 216.885 164.896 216.416C165.707 215.947 166.357 215.264 166.848 214.368C167.36 213.451 167.616 212.384 167.616 211.168ZM179.736 204.928C180.269 204.032 180.973 203.339 181.848 202.848C182.744 202.336 183.8 202.08 185.016 202.08V205.856H184.088C182.658 205.856 181.57 206.219 180.824 206.944C180.098 207.669 179.736 208.928 179.736 210.72V220H176.088V202.368H179.736V204.928ZM204.529 210.752C204.529 211.413 204.486 212.011 204.401 212.544H190.929C191.035 213.952 191.558 215.083 192.497 215.936C193.435 216.789 194.587 217.216 195.953 217.216C197.915 217.216 199.302 216.395 200.113 214.752H204.049C203.515 216.373 202.545 217.707 201.137 218.752C199.75 219.776 198.022 220.288 195.953 220.288C194.267 220.288 192.753 219.915 191.409 219.168C190.086 218.4 189.041 217.333 188.273 215.968C187.526 214.581 187.153 212.981 187.153 211.168C187.153 209.355 187.515 207.765 188.241 206.4C188.987 205.013 190.022 203.947 191.345 203.2C192.689 202.453 194.225 202.08 195.953 202.08C197.617 202.08 199.099 202.443 200.401 203.168C201.702 203.893 202.715 204.917 203.441 206.24C204.166 207.541 204.529 209.045 204.529 210.752ZM200.721 209.6C200.699 208.256 200.219 207.179 199.281 206.368C198.342 205.557 197.179 205.152 195.793 205.152C194.534 205.152 193.457 205.557 192.561 206.368C191.665 207.157 191.131 208.235 190.961 209.6H200.721ZM209.591 220.224C208.929 220.224 208.375 220 207.927 219.552C207.479 219.104 207.255 218.549 207.255 217.888C207.255 217.227 207.479 216.672 207.927 216.224C208.375 215.776 208.929 215.552 209.591 215.552C210.231 215.552 210.775 215.776 211.223 216.224C211.671 216.672 211.895 217.227 211.895 217.888C211.895 218.549 211.671 219.104 211.223 219.552C210.775 220 210.231 220.224 209.591 220.224Z" fill="#111827"/>
<path d="M15.5216 48.032C14.8603 48.032 14.3056 47.808 13.8576 47.36C13.4096 46.912 13.1856 46.3573 13.1856 45.696C13.1856 45.0347 13.4096 44.48 13.8576 44.032C14.3056 43.584 14.8603 43.36 15.5216 43.36C16.1616 43.36 16.7056 43.584 17.1536 44.032C17.6016 44.48 17.8256 45.0347 17.8256 45.696C17.8256 46.3573 17.6016 46.912 17.1536 47.36C16.7056 47.808 16.1616 48.032 15.5216 48.032ZM17.3136 50.368V68H13.6656V50.368H17.3136ZM20.8871 59.104C20.8871 57.3333 21.2498 55.7653 21.9751 54.4C22.7218 53.0347 23.7245 51.9787 24.9831 51.232C26.2631 50.464 27.6818 50.08 29.2391 50.08C30.3911 50.08 31.5218 50.336 32.6311 50.848C33.7618 51.3387 34.6578 52 35.3191 52.832V44.32H38.9991V68H35.3191V65.344C34.7218 66.1973 33.8898 66.9013 32.8231 67.456C31.7778 68.0107 30.5725 68.288 29.2071 68.288C27.6711 68.288 26.2631 67.904 24.9831 67.136C23.7245 66.3467 22.7218 65.2587 21.9751 63.872C21.2498 62.464 20.8871 60.8747 20.8871 59.104ZM35.3191 59.168C35.3191 57.952 35.0631 56.896 34.5511 56C34.0605 55.104 33.4098 54.4213 32.5991 53.952C31.7885 53.4827 30.9138 53.248 29.9751 53.248C29.0365 53.248 28.1618 53.4827 27.3511 53.952C26.5405 54.4 25.8791 55.072 25.3671 55.968C24.8765 56.8427 24.6311 57.888 24.6311 59.104C24.6311 60.32 24.8765 61.3867 25.3671 62.304C25.8791 63.2213 26.5405 63.9253 27.3511 64.416C28.1831 64.8853 29.0578 65.12 29.9751 65.12C30.9138 65.12 31.7885 64.8853 32.5991 64.416C33.4098 63.9467 34.0605 63.264 34.5511 62.368C35.0631 61.4507 35.3191 60.384 35.3191 59.168ZM59.9506 58.752C59.9506 59.4133 59.908 60.0107 59.8226 60.544H46.3506C46.4573 61.952 46.98 63.0827 47.9186 63.936C48.8573 64.7893 50.0093 65.216 51.3746 65.216C53.3373 65.216 54.724 64.3947 55.5346 62.752H59.4706C58.9373 64.3733 57.9666 65.7067 56.5586 66.752C55.172 67.776 53.444 68.288 51.3746 68.288C49.6893 68.288 48.1746 67.9147 46.8306 67.168C45.508 66.4 44.4626 65.3333 43.6946 63.968C42.948 62.5813 42.5746 60.9813 42.5746 59.168C42.5746 57.3547 42.9373 55.7653 43.6626 54.4C44.4093 53.0133 45.444 51.9467 46.7666 51.2C48.1106 50.4533 49.6466 50.08 51.3746 50.08C53.0386 50.08 54.5213 50.4427 55.8226 51.168C57.124 51.8933 58.1373 52.9173 58.8626 54.24C59.588 55.5413 59.9506 57.0453 59.9506 58.752ZM56.1426 57.6C56.1213 56.256 55.6413 55.1787 54.7026 54.368C53.764 53.5573 52.6013 53.152 51.2146 53.152C49.956 53.152 48.8786 53.5573 47.9826 54.368C47.0866 55.1573 46.5533 56.2347 46.3826 57.6H56.1426ZM65.3966 48.032C64.7353 48.032 64.1806 47.808 63.7326 47.36C63.2846 46.912 63.0606 46.3573 63.0606 45.696C63.0606 45.0347 63.2846 44.48 63.7326 44.032C64.1806 43.584 64.7353 43.36 65.3966 43.36C66.0366 43.36 66.5806 43.584 67.0286 44.032C67.4766 44.48 67.7006 45.0347 67.7006 45.696C67.7006 46.3573 67.4766 46.912 67.0286 47.36C66.5806 47.808 66.0366 48.032 65.3966 48.032ZM67.1886 50.368V68H63.5406V50.368H67.1886ZM70.7621 59.104C70.7621 57.3333 71.1248 55.7653 71.8501 54.4C72.5968 53.0347 73.5995 51.9787 74.8581 51.232C76.1381 50.464 77.5461 50.08 79.0821 50.08C80.4688 50.08 81.6741 50.3573 82.6981 50.912C83.7435 51.4453 84.5755 52.1173 85.1941 52.928V50.368H88.8741V68H85.1941V65.376C84.5755 66.208 83.7328 66.9013 82.6661 67.456C81.5995 68.0107 80.3835 68.288 79.0181 68.288C77.5035 68.288 76.1168 67.904 74.8581 67.136C73.5995 66.3467 72.5968 65.2587 71.8501 63.872C71.1248 62.464 70.7621 60.8747 70.7621 59.104ZM85.1941 59.168C85.1941 57.952 84.9381 56.896 84.4261 56C83.9355 55.104 83.2848 54.4213 82.4741 53.952C81.6635 53.4827 80.7888 53.248 79.8501 53.248C78.9115 53.248 78.0368 53.4827 77.2261 53.952C76.4155 54.4 75.7541 55.072 75.2421 55.968C74.7515 56.8427 74.5061 57.888 74.5061 59.104C74.5061 60.32 74.7515 61.3867 75.2421 62.304C75.7541 63.2213 76.4155 63.9253 77.2261 64.416C78.0581 64.8853 78.9328 65.12 79.8501 65.12C80.7888 65.12 81.6635 64.8853 82.4741 64.416C83.2848 63.9467 83.9355 63.264 84.4261 62.368C84.9381 61.4507 85.1941 60.384 85.1941 59.168ZM100.066 68.288C98.679 68.288 97.431 68.0427 96.3216 67.552C95.2336 67.04 94.3696 66.3573 93.7296 65.504C93.0896 64.6293 92.7483 63.6587 92.7056 62.592H96.4816C96.5456 63.3387 96.8976 63.968 97.5376 64.48C98.199 64.9707 99.0203 65.216 100.002 65.216C101.026 65.216 101.815 65.024 102.37 64.64C102.946 64.2347 103.234 63.7227 103.234 63.104C103.234 62.4427 102.914 61.952 102.274 61.632C101.655 61.312 100.663 60.96 99.2976 60.576C97.975 60.2133 96.8976 59.8613 96.0656 59.52C95.2336 59.1787 94.5083 58.656 93.8896 57.952C93.2923 57.248 92.9936 56.32 92.9936 55.168C92.9936 54.2293 93.271 53.376 93.8256 52.608C94.3803 51.8187 95.1696 51.2 96.1936 50.752C97.239 50.304 98.4336 50.08 99.7776 50.08C101.783 50.08 103.394 50.592 104.61 51.616C105.847 52.6187 106.508 53.9947 106.594 55.744H102.946C102.882 54.9547 102.562 54.3253 101.986 53.856C101.41 53.3867 100.631 53.152 99.6496 53.152C98.6896 53.152 97.9536 53.3333 97.4416 53.696C96.9296 54.0587 96.6736 54.5387 96.6736 55.136C96.6736 55.6053 96.8443 56 97.1856 56.32C97.527 56.64 97.943 56.896 98.4336 57.088C98.9243 57.2587 99.6496 57.4827 100.61 57.76C101.89 58.1013 102.935 58.4533 103.746 58.816C104.578 59.1573 105.292 59.6693 105.89 60.352C106.487 61.0347 106.796 61.9413 106.818 63.072C106.818 64.0747 106.54 64.9707 105.986 65.76C105.431 66.5493 104.642 67.168 103.618 67.616C102.615 68.064 101.431 68.288 100.066 68.288Z" fill="url(#paint1_linear_1221_170)"/>
<defs>
<linearGradient id="paint0_linear_1221_170" x1="-18.2395" y1="110.756" x2="207.297" y2="96.8415" gradientUnits="userSpaceOnUse">
<stop stop-color="#FFF278"/>
<stop offset="1" stop-color="#F28D2F"/>
</linearGradient>
<linearGradient id="paint1_linear_1221_170" x1="143.43" y1="-38.59" x2="323.231" y2="21.5029" gradientUnits="userSpaceOnUse">
<stop stop-color="#40C4FF"/>
<stop offset="0.809347" stop-color="#189FFF"/>
</linearGradient>
</defs>
</svg>
