<svg width="48" height="48" viewBox="0 0 48 48" fill="none" xmlns="http://www.w3.org/2000/svg">
<rect width="48" height="48" rx="24" fill="#F59E0B"/>
<path fill-rule="evenodd" clip-rule="evenodd" d="M26.7516 18.3516C26.9767 18.1266 27.2818 18.0003 27.6 18.0003C27.9182 18.0003 28.2234 18.1266 28.4484 18.3516L33.2484 23.1516C33.4734 23.3766 33.5998 23.6818 33.5998 24C33.5998 24.3182 33.4734 24.6234 33.2484 24.8484L28.4484 29.6484C28.2221 29.867 27.919 29.9879 27.6043 29.9852C27.2897 29.9825 26.9887 29.8563 26.7662 29.6338C26.5438 29.4113 26.4175 29.1103 26.4148 28.7957C26.4121 28.481 26.533 28.1779 26.7516 27.9516L29.5032 25.2H15.6C15.2818 25.2 14.9765 25.0736 14.7515 24.8485C14.5265 24.6235 14.4 24.3183 14.4 24C14.4 23.6817 14.5265 23.3765 14.7515 23.1515C14.9765 22.9264 15.2818 22.8 15.6 22.8H29.5032L26.7516 20.0484C26.5267 19.8234 26.4003 19.5182 26.4003 19.2C26.4003 18.8818 26.5267 18.5766 26.7516 18.3516Z" fill="white"/>
</svg>
