<svg width="165" height="34" viewBox="0 0 165 34" fill="none" xmlns="http://www.w3.org/2000/svg">
<path d="M3.9565 26.7055C2.83067 26.7055 1.88175 26.3356 1.10975 25.5958C0.369917 24.8559 0 23.907 0 22.749C0 21.591 0.369917 20.6582 1.10975 19.9505C1.88175 19.2107 2.83067 18.8408 3.9565 18.8408C5.08233 18.8408 6.01517 19.2107 6.755 19.9505C7.527 20.6903 7.913 21.6232 7.913 22.749C7.913 23.907 7.527 24.8559 6.755 25.5958C6.01517 26.3356 5.08233 26.7055 3.9565 26.7055Z" fill="#FFC36A"/>
<path d="M12.987 33.9635V0.036499H16.3087V33.9635H12.987Z" fill="#FFC36A"/>
<path d="M28.3087 29.1138L33.1585 12.1396H37.7657L42.5912 29.1138H39.8996L38.7842 25.1127H32.14L31.0246 29.1138H28.3087ZM32.7947 22.6879H38.1295L35.6561 13.7643H35.2681L32.7947 22.6879Z" fill="#111827"/>
<path d="M50.5166 29.4533C49.3688 29.4533 48.3261 29.2108 47.3885 28.7258C46.4671 28.2408 45.7315 27.5376 45.1819 26.6162C44.6484 25.6947 44.3817 24.5873 44.3817 23.2941V22.9788C44.3817 21.6856 44.6484 20.5863 45.1819 19.681C45.7315 18.7596 46.4671 18.0563 47.3885 17.5714C48.3261 17.0702 49.3688 16.8197 50.5166 16.8197C51.6644 16.8197 52.6424 17.0298 53.4507 17.4501C54.259 17.8704 54.9056 18.4282 55.3906 19.1233C55.8917 19.8184 56.215 20.5863 56.3605 21.4269L53.9357 21.9361C53.8548 21.4027 53.6851 20.9177 53.4264 20.4812C53.1678 20.0447 52.8041 19.6972 52.3352 19.4385C51.8664 19.1799 51.2764 19.0505 50.5651 19.0505C49.87 19.0505 49.2395 19.2122 48.6737 19.5355C48.1241 19.8427 47.6876 20.2953 47.3643 20.8934C47.0409 21.4754 46.8793 22.1867 46.8793 23.0273V23.2456C46.8793 24.0862 47.0409 24.8056 47.3643 25.4037C47.6876 26.0019 48.1241 26.4545 48.6737 26.7616C49.2395 27.0688 49.87 27.2224 50.5651 27.2224C51.6159 27.2224 52.4161 26.9556 52.9657 26.4222C53.5154 25.8725 53.8629 25.1774 54.0084 24.3368L56.4333 24.8945C56.2393 25.719 55.8917 26.4787 55.3906 27.1739C54.9056 27.869 54.259 28.4267 53.4507 28.847C52.6424 29.2512 51.6644 29.4533 50.5166 29.4533Z" fill="#111827"/>
<path d="M59.314 29.1138V12.1396H61.8116V18.8566H62.1996C62.3612 18.5494 62.5875 18.2503 62.8785 17.9593C63.1857 17.6684 63.5817 17.434 64.0667 17.2561C64.5679 17.0621 65.1983 16.9651 65.9581 16.9651C66.8634 16.9651 67.6636 17.1672 68.3587 17.5714C69.07 17.9755 69.6278 18.5494 70.0319 19.293C70.4361 20.0205 70.6381 20.9015 70.6381 21.9361V29.1138H68.1405V22.1301C68.1405 21.0955 67.8819 20.3357 67.3645 19.8508C66.8472 19.3496 66.1359 19.099 65.2307 19.099C64.196 19.099 63.3635 19.4385 62.733 20.1175C62.1187 20.7965 61.8116 21.7826 61.8116 23.0758V29.1138H59.314Z" fill="#111827"/>
<path d="M78.3871 29.1138C77.6597 29.1138 77.0777 28.8955 76.6412 28.4591C76.2209 28.0226 76.0107 27.4406 76.0107 26.7131V19.2688H72.7129V17.1591H76.0107V13.2066H78.5084V17.1591H82.0729V19.2688H78.5084V26.2767C78.5084 26.7616 78.7347 27.0041 79.1873 27.0041H81.685V29.1138H78.3871Z" fill="#111827"/>
<path d="M90.0612 29.4533C88.8488 29.4533 87.7899 29.2027 86.8846 28.7015C85.9793 28.1842 85.268 27.4649 84.7507 26.5434C84.2496 25.6058 83.999 24.5227 83.999 23.2941V23.0031C83.999 21.7583 84.2496 20.6752 84.7507 19.7538C85.2519 18.8161 85.947 18.0968 86.8361 17.5956C87.7414 17.0783 88.7841 16.8197 89.9642 16.8197C91.112 16.8197 92.1143 17.0783 92.971 17.5956C93.844 18.0968 94.523 18.8 95.0079 19.7053C95.4929 20.6105 95.7354 21.6694 95.7354 22.8818V23.8275H86.5451C86.5775 24.8783 86.925 25.7189 87.5878 26.3494C88.2668 26.9637 89.1074 27.2709 90.1097 27.2709C91.0473 27.2709 91.7505 27.0607 92.2193 26.6404C92.7043 26.2201 93.0761 25.7351 93.3348 25.1855L95.3959 26.2524C95.1696 26.7051 94.8382 27.182 94.4017 27.6831C93.9814 28.1842 93.4237 28.6046 92.7286 28.944C92.0334 29.2835 91.1443 29.4533 90.0612 29.4533ZM86.5694 21.9119H93.1893C93.1246 21.0066 92.8013 20.3034 92.2193 19.8023C91.6374 19.2849 90.8776 19.0263 89.9399 19.0263C89.0023 19.0263 88.2345 19.2849 87.6363 19.8023C87.0543 20.3034 86.6987 21.0066 86.5694 21.9119Z" fill="#111827"/>
<path d="M98.7419 29.1138V17.1591H101.191V18.9535H101.579C101.805 18.4686 102.209 18.0159 102.791 17.5956C103.373 17.1753 104.238 16.9651 105.386 16.9651C106.291 16.9651 107.092 17.1672 107.787 17.5714C108.498 17.9755 109.056 18.5494 109.46 19.293C109.864 20.0205 110.066 20.9015 110.066 21.9361V29.1138H107.568V22.1301C107.568 21.0955 107.31 20.3357 106.792 19.8508C106.275 19.3496 105.564 19.099 104.659 19.099C103.624 19.099 102.791 19.4385 102.161 20.1175C101.547 20.7965 101.239 21.7826 101.239 23.0758V29.1138H98.7419Z" fill="#111827"/>
<path d="M120.571 29.4533C119.407 29.4533 118.51 29.2431 117.88 28.8228C117.266 28.4025 116.805 27.9337 116.498 27.4164H116.11V29.1138H113.661V12.1396H116.158V18.7838H116.546C116.74 18.4605 116.999 18.1533 117.322 17.8624C117.645 17.5552 118.074 17.3046 118.607 17.1106C119.141 16.9167 119.795 16.8197 120.571 16.8197C121.574 16.8197 122.495 17.0621 123.336 17.5471C124.176 18.0321 124.847 18.7353 125.348 19.6568C125.85 20.5782 126.1 21.6775 126.1 22.9546V23.3183C126.1 24.6116 125.841 25.7189 125.324 26.6404C124.823 27.5457 124.152 28.2408 123.312 28.7258C122.487 29.2108 121.574 29.4533 120.571 29.4533ZM119.844 27.2709C120.927 27.2709 121.816 26.9233 122.511 26.2282C123.223 25.533 123.578 24.5388 123.578 23.2456V23.0273C123.578 21.7502 123.231 20.7641 122.536 20.069C121.84 19.3739 120.943 19.0263 119.844 19.0263C118.777 19.0263 117.888 19.3739 117.177 20.069C116.481 20.7641 116.134 21.7502 116.134 23.0273V23.2456C116.134 24.5388 116.481 25.533 117.177 26.2282C117.888 26.9233 118.777 27.2709 119.844 27.2709Z" fill="#111827"/>
<path d="M134.675 29.4533C133.463 29.4533 132.404 29.2027 131.499 28.7015C130.593 28.1842 129.882 27.4649 129.365 26.5434C128.863 25.6058 128.613 24.5227 128.613 23.2941V23.0031C128.613 21.7583 128.863 20.6752 129.365 19.7538C129.866 18.8161 130.561 18.0968 131.45 17.5956C132.355 17.0783 133.398 16.8197 134.578 16.8197C135.726 16.8197 136.728 17.0783 137.585 17.5956C138.458 18.0968 139.137 18.8 139.622 19.7053C140.107 20.6105 140.349 21.6694 140.349 22.8818V23.8275H131.159C131.191 24.8783 131.539 25.7189 132.202 26.3494C132.881 26.9637 133.721 27.2709 134.724 27.2709C135.661 27.2709 136.364 27.0607 136.833 26.6404C137.318 26.2201 137.69 25.7351 137.949 25.1855L140.01 26.2524C139.784 26.7051 139.452 27.182 139.016 27.6831C138.595 28.1842 138.038 28.6046 137.342 28.944C136.647 29.2835 135.758 29.4533 134.675 29.4533ZM131.183 21.9119H137.803C137.739 21.0066 137.415 20.3034 136.833 19.8023C136.251 19.2849 135.491 19.0263 134.554 19.0263C133.616 19.0263 132.848 19.2849 132.25 19.8023C131.668 20.3034 131.313 21.0066 131.183 21.9119Z" fill="#111827"/>
<path d="M143.356 29.1138V17.1591H145.805V18.5656H146.193C146.387 18.0644 146.694 17.7007 147.114 17.4744C147.551 17.2319 148.084 17.1106 148.715 17.1106H150.145V19.3658H148.618C147.809 19.3658 147.147 19.5921 146.629 20.0447C146.112 20.4812 145.853 21.1602 145.853 22.0816V29.1138H143.356Z" fill="#111827"/>
<path d="M151.725 23.1971V22.8333C151.725 21.5724 151.976 20.4974 152.477 19.6083C152.994 18.7191 153.673 18.0321 154.514 17.5471C155.354 17.0621 156.276 16.8197 157.278 16.8197C158.442 16.8197 159.331 17.0379 159.945 17.4744C160.576 17.9109 161.037 18.3797 161.328 18.8808H161.715V17.1591H164.14V31.5629C164.14 32.2904 163.922 32.8723 163.486 33.3088C163.065 33.7453 162.483 33.9635 161.74 33.9635H153.689V31.7811H160.964C161.433 31.7811 161.667 31.5387 161.667 31.0537V27.2466H161.279C161.101 27.5376 160.851 27.8367 160.527 28.1438C160.204 28.451 159.776 28.7015 159.242 28.8955C158.725 29.0895 158.07 29.1865 157.278 29.1865C156.276 29.1865 155.346 28.9521 154.489 28.4833C153.649 27.9983 152.978 27.3113 152.477 26.4222C151.976 25.5169 151.725 24.4418 151.725 23.1971ZM157.957 27.0041C159.04 27.0041 159.929 26.6646 160.624 25.9857C161.336 25.2906 161.691 24.3368 161.691 23.1243V22.9061C161.691 21.6613 161.344 20.7075 160.649 20.0447C159.953 19.3658 159.056 19.0263 157.957 19.0263C156.89 19.0263 156.001 19.3658 155.29 20.0447C154.594 20.7075 154.247 21.6613 154.247 22.9061V23.1243C154.247 24.3368 154.594 25.2906 155.29 25.9857C156.001 26.6646 156.89 27.0041 157.957 27.0041Z" fill="#111827"/>
</svg>
