<svg width="40" height="31" viewBox="0 0 40 31" fill="none" xmlns="http://www.w3.org/2000/svg">
<path d="M2.7392 25.2027H0.0814209V10.9027H2.62364V13.2374H2.7392C3.00882 12.4786 3.55771 11.8366 4.38586 11.3113C5.23326 10.7665 6.06142 10.4941 6.87031 10.4941C7.64069 10.4941 8.29549 10.6109 8.83475 10.8443L8.02587 13.4417C7.69846 13.3055 7.17847 13.2374 6.46587 13.2374C5.46438 13.2374 4.58809 13.646 3.83698 14.4631C3.10513 15.2803 2.7392 16.2336 2.7392 17.3231V25.2027ZM8.04753 20.8252C8.04753 21.5256 8.33642 22.1092 8.9142 22.5762C9.51124 23.0431 10.2046 23.2766 10.9942 23.2766C12.1112 23.2766 13.1031 22.8583 13.9698 22.0217C14.8557 21.1851 15.2986 20.2026 15.2986 19.0741C14.4705 18.4126 13.3149 18.0819 11.832 18.0819C10.7535 18.0819 9.84827 18.3445 9.11642 18.8699C8.40382 19.3952 8.04753 20.0469 8.04753 20.8252ZM11.4853 10.4358C13.4498 10.4358 15.0001 10.9708 16.1364 12.0409C17.2727 13.0915 17.8409 14.5409 17.8409 16.3892V25.2027H15.2986V23.2182H15.1831C14.0853 24.8525 12.6216 25.6696 10.792 25.6696C9.23198 25.6696 7.92235 25.2027 6.86309 24.2688C5.82309 23.335 5.30309 22.1676 5.30309 20.7668C5.30309 19.2881 5.85198 18.1111 6.94975 17.2356C8.0668 16.3601 9.54975 15.9223 11.3986 15.9223C12.9779 15.9223 14.2779 16.2141 15.2986 16.7978V16.185C15.2986 15.2511 14.9327 14.4631 14.2009 13.8211C13.469 13.1596 12.612 12.8288 11.6298 12.8288C10.1468 12.8288 8.97198 13.4612 8.10531 14.7258L5.76531 13.2374C7.05569 11.3696 8.96235 10.4358 11.4853 10.4358ZM23.4674 4.07373C24.4303 4.07373 25.2201 4.2391 25.8363 4.56985L25.1141 6.93373C24.6519 6.70026 24.1319 6.58353 23.5541 6.58353C22.8992 6.58353 22.3601 6.817 21.9363 7.28394C21.5319 7.73141 21.3296 8.33455 21.3296 9.09332V10.9027H25.0274V13.3541H21.3296V25.2027H18.6719V13.3541H16.0141V10.9027H18.6719V8.83067C18.6719 7.41039 19.1148 6.26251 20.0008 5.387C20.906 4.51149 22.0615 4.07373 23.4674 4.07373ZM21.9988 18.0527C21.9988 15.8542 22.6825 14.0351 24.0499 12.5954C25.4365 11.1556 27.1796 10.4358 29.2788 10.4358C31.3781 10.4358 33.1114 11.1556 34.4788 12.5954C35.8654 14.0351 36.5588 15.8542 36.5588 18.0527C36.5588 20.2707 35.8654 22.0898 34.4788 23.5101C33.1114 24.9498 31.3781 25.6696 29.2788 25.6696C27.1796 25.6696 25.4365 24.9498 24.0499 23.5101C22.6825 22.0703 21.9988 20.2512 21.9988 18.0527ZM24.6565 18.0527C24.6565 19.5897 25.0996 20.8349 25.9854 21.7882C26.8714 22.7416 27.9692 23.2182 29.2788 23.2182C30.5885 23.2182 31.6863 22.7416 32.5721 21.7882C33.4581 20.8349 33.901 19.5897 33.901 18.0527C33.901 16.5352 33.4581 15.2997 32.5721 14.3464C31.667 13.3736 30.5692 12.8872 29.2788 12.8872C27.9885 12.8872 26.8908 13.3736 25.9854 14.3464C25.0996 15.2997 24.6565 16.5352 24.6565 18.0527ZM39.9185 23.3933C39.9185 23.9381 39.7259 24.405 39.3408 24.7941C38.9748 25.1832 38.5125 25.3778 37.9541 25.3778C37.4148 25.3778 36.9525 25.1832 36.5674 24.7941C36.1823 24.405 35.9896 23.9381 35.9896 23.3933C35.9896 22.8291 36.1823 22.3622 36.5674 21.9925C36.9525 21.6034 37.4148 21.4088 37.9541 21.4088C38.5125 21.4088 38.9748 21.6034 39.3408 21.9925C39.7259 22.3622 39.9185 22.8291 39.9185 23.3933Z" fill="#F9FAFB"/>
</svg>
