<svg width="103" height="103" viewBox="0 0 103 103" fill="none" xmlns="http://www.w3.org/2000/svg">
<g filter="url(#filter0_dd_1278_317)">
<rect x="9.5" y="0.0736694" width="84" height="84" rx="20" fill="#84CC16" shape-rendering="crispEdges"/>
<path d="M51.5 68.0737C50.6481 68.0739 49.8111 67.8895 49.0733 67.5388L41.351 63.7743C40.1985 63.2432 40.7601 63.0556 41.1413 62.946C42.367 62.6342 43.5406 62.1975 44.6348 61.646C44.7264 61.6111 44.8272 61.596 44.9279 61.6022C45.0285 61.6084 45.1256 61.6356 45.2099 61.6813L51.1437 64.584C51.2542 64.6322 51.3773 64.6573 51.5023 64.6573C51.6273 64.6573 51.7504 64.6322 51.8609 64.584L75.0006 53.5859C75.1089 53.5325 75.1985 53.4568 75.2605 53.3663C75.3226 53.2758 75.355 53.1735 75.3547 53.0696V31.0696C75.3548 30.964 75.3218 30.8602 75.259 30.7681C75.1962 30.6761 75.1056 30.5989 74.9961 30.544L51.8564 19.5551C51.7472 19.5045 51.6241 19.4779 51.4989 19.4779C51.3736 19.4779 51.2505 19.5045 51.1414 19.5551L28.0152 30.5477C27.9049 30.6014 27.8133 30.6777 27.7493 30.7691C27.6853 30.8606 27.651 30.9641 27.6498 31.0696V53.0603C27.6501 53.164 27.6839 53.2658 27.7477 53.3552C27.8116 53.4446 27.9031 53.5185 28.0129 53.5692L34.3595 56.5852C37.7988 58.0004 39.9053 56.3326 39.9053 54.6575V32.9453C39.9053 32.7976 39.9766 32.6558 40.1035 32.5514C40.2304 32.4469 40.4025 32.3882 40.5819 32.3882H43.5139C43.6933 32.3882 43.8654 32.4469 43.9923 32.5514C44.1192 32.6558 44.1905 32.7976 44.1905 32.9453V54.6593C44.1905 58.4387 41.6916 60.6023 37.3388 60.6023C35.4609 60.6292 33.6125 60.2157 32.0094 59.41L25.9268 56.5369C25.1883 56.1828 24.5756 55.6754 24.1498 55.0654C23.724 54.4553 23.4999 53.764 23.5 53.0603V31.0696C23.4978 30.3648 23.7209 29.672 24.1469 29.0608C24.5729 28.4495 25.1867 27.9414 25.9268 27.5874L49.0688 16.5855C49.8142 16.2497 50.6503 16.0737 51.5 16.0737C52.3497 16.0737 53.1858 16.2497 53.9313 16.5855L77.071 27.5874C77.8093 27.9408 78.4222 28.4475 78.8484 29.0569C79.2746 29.6663 79.4993 30.3571 79.5 31.0603V53.0603C79.4987 53.764 79.2739 54.4551 78.8477 55.065C78.4216 55.6749 77.8091 56.1824 77.071 56.5369L53.9313 67.5388C53.192 67.89 52.3534 68.0745 51.5 68.0737Z" fill="white"/>
<path d="M47.1102 45.7017C47.1102 45.5539 47.1815 45.4122 47.3084 45.3077C47.4353 45.2032 47.6074 45.1445 47.7868 45.1445H50.7797C50.9396 45.145 51.0941 45.192 51.2159 45.2773C51.3377 45.3627 51.4189 45.4808 51.445 45.6107C51.896 48.1197 53.2493 49.3844 59.368 49.3844C64.2418 49.3844 66.3189 48.4763 66.3189 46.3461C66.3189 45.1185 65.7303 44.2067 58.1546 43.5957C51.8216 43.0794 47.9064 41.9242 47.9064 37.7567C47.9064 33.9124 51.8419 31.6188 58.4388 31.6188C65.8521 31.6188 69.5215 33.7378 69.9861 38.2841C69.9932 38.3601 69.9813 38.4363 69.9512 38.5083C69.9211 38.5803 69.8734 38.6464 69.8111 38.7026C69.7487 38.7589 69.6731 38.804 69.5887 38.8351C69.5044 38.8663 69.4132 38.883 69.3208 38.884H66.3076C66.1565 38.8823 66.0104 38.8389 65.8927 38.7608C65.7749 38.6827 65.6924 38.5744 65.6581 38.4532C64.9387 35.8141 63.1772 34.971 58.441 34.971C53.1184 34.971 52.5005 36.4976 52.5005 37.6416C52.5005 39.027 53.2312 39.4319 60.4167 40.2137C67.5278 40.9882 70.9063 42.0839 70.9063 46.1994C70.9063 50.352 66.7023 52.7292 59.3702 52.7292C49.2325 52.7403 47.1102 48.9127 47.1102 45.7017Z" fill="white"/>
</g>
<defs>
<filter id="filter0_dd_1278_317" x="0.37904" y="0.0736694" width="102.242" height="102.242" filterUnits="userSpaceOnUse" color-interpolation-filters="sRGB">
<feFlood flood-opacity="0" result="BackgroundImageFix"/>
<feColorMatrix in="SourceAlpha" type="matrix" values="0 0 0 0 0 0 0 0 0 0 0 0 0 0 0 0 0 0 127 0" result="hardAlpha"/>
<feOffset dy="9.12096"/>
<feGaussianBlur stdDeviation="4.56048"/>
<feComposite in2="hardAlpha" operator="out"/>
<feColorMatrix type="matrix" values="0 0 0 0 0.517647 0 0 0 0 0.8 0 0 0 0 0.0862745 0 0 0 0.2 0"/>
<feBlend mode="normal" in2="BackgroundImageFix" result="effect1_dropShadow_1278_317"/>
<feColorMatrix in="SourceAlpha" type="matrix" values="0 0 0 0 0 0 0 0 0 0 0 0 0 0 0 0 0 0 127 0" result="hardAlpha"/>
<feOffset dy="9.12096"/>
<feGaussianBlur stdDeviation="4.56048"/>
<feComposite in2="hardAlpha" operator="out"/>
<feColorMatrix type="matrix" values="0 0 0 0 0.517647 0 0 0 0 0.8 0 0 0 0 0.0862745 0 0 0 0.1 0"/>
<feBlend mode="normal" in2="effect1_dropShadow_1278_317" result="effect2_dropShadow_1278_317"/>
<feBlend mode="normal" in="SourceGraphic" in2="effect2_dropShadow_1278_317" result="shape"/>
</filter>
</defs>
</svg>
