<svg width="104" height="103" viewBox="0 0 104 103" fill="none" xmlns="http://www.w3.org/2000/svg">
<rect x="10" y="0.0736694" width="84" height="84" rx="20" fill="#F0F9FF"/>
<g filter="url(#filter0_dd_1278_309)">
<rect x="10" y="0.0736694" width="84" height="84" rx="20" fill="#38BDF8" shape-rendering="crispEdges"/>
<path d="M80 42.0796C80 38.2115 75.3543 34.5456 68.2316 32.2723C69.8753 24.7026 69.1447 18.6802 65.9258 16.7521C65.1839 16.2998 64.3163 16.0856 63.3689 16.0856V18.7397C63.894 18.7397 64.3163 18.8468 64.6702 19.0492C66.2226 19.9775 66.896 23.5124 66.371 28.059C66.2454 29.1778 66.04 30.3561 65.7888 31.5582C63.5516 30.9869 61.1088 30.5465 58.5406 30.2609C56.9996 28.059 55.4016 26.0595 53.7921 24.3099C57.5133 20.7036 61.0061 18.7278 63.3804 18.7278V16.0737C60.2413 16.0737 56.1321 18.4065 51.9772 22.4532C47.8223 18.4303 43.713 16.1213 40.574 16.1213V18.7754C42.9368 18.7754 46.4411 20.7393 50.1623 24.3218C48.5642 26.0714 46.9662 28.059 45.448 30.2609C42.8683 30.5465 40.4256 30.9869 38.1883 31.5701C37.9258 30.3799 37.7318 29.2254 37.5948 28.1185C37.0583 23.572 37.7203 20.037 39.2613 19.0968C39.6038 18.8826 40.0489 18.7873 40.574 18.7873V16.1332C39.6152 16.1332 38.7477 16.3474 37.9943 16.7997C34.7868 18.7278 34.0677 24.7384 35.7228 32.2842C28.6229 34.5694 24 38.2234 24 42.0796C24 45.9478 28.6457 49.6136 35.7684 51.8869C34.1247 59.4566 34.8553 65.479 38.0742 67.4072C38.8161 67.8594 39.6837 68.0737 40.6425 68.0737C43.7815 68.0737 47.8907 65.7409 52.0457 61.6942C56.2006 65.7171 60.3098 68.0261 63.4488 68.0261C64.4077 68.0261 65.2752 67.8118 66.0285 67.3595C69.236 65.4314 69.9552 59.4209 68.3 51.875C75.3771 49.6017 80 45.9359 80 42.0796ZM65.1382 34.141C64.7159 35.6763 64.1908 37.2593 63.5972 38.8423C63.1292 37.8901 62.6384 36.9379 62.1019 35.9858C61.5768 35.0336 61.0175 34.1053 60.4582 33.2007C62.0791 33.4506 63.6429 33.7601 65.1382 34.141ZM59.9103 46.8166C59.02 48.4234 58.1068 49.9469 57.1594 51.3632C55.4586 51.5179 53.735 51.6012 52 51.6012C50.2764 51.6012 48.5528 51.5179 46.8634 51.3751C45.916 49.9588 44.9914 48.4472 44.1011 46.8523C43.2336 45.2932 42.446 43.7102 41.7269 42.1153C42.4346 40.5205 43.2336 38.9256 44.0897 37.3664C44.98 35.7596 45.8932 34.2362 46.8406 32.8198C48.5414 32.6651 50.265 32.5818 52 32.5818C53.7236 32.5818 55.4472 32.6651 57.1366 32.8079C58.084 34.2243 59.0086 35.7358 59.8989 37.3307C60.7664 38.8899 61.554 40.4728 62.2731 42.0677C61.554 43.6626 60.7664 45.2575 59.9103 46.8166ZM63.5972 45.2694C64.2136 46.8642 64.7387 48.4591 65.1724 50.0064C63.6771 50.3872 62.1019 50.7086 60.4696 50.9585C61.0289 50.0421 61.5883 49.1018 62.1133 48.1378C62.6384 47.1856 63.1292 46.2215 63.5972 45.2694ZM52.0228 57.9688C50.9613 56.8262 49.8997 55.5527 48.8496 54.1602C49.8769 54.2078 50.927 54.2435 51.9886 54.2435C53.0616 54.2435 54.1231 54.2197 55.1618 54.1602C54.1345 55.5527 53.073 56.8262 52.0228 57.9688ZM43.5304 50.9585C41.9095 50.7086 40.3457 50.3991 38.8504 50.0183C39.2727 48.4829 39.7978 46.8999 40.3914 45.317C40.8594 46.2691 41.3502 47.2213 41.8867 48.1735C42.4232 49.1256 42.9711 50.054 43.5304 50.9585ZM51.9658 26.1904C53.0273 27.333 54.0889 28.6065 55.139 29.9991C54.1117 29.9514 53.0616 29.9157 52 29.9157C50.927 29.9157 49.8655 29.9395 48.8267 29.9991C49.8541 28.6065 50.9156 27.333 51.9658 26.1904ZM43.519 33.2007C42.9596 34.1172 42.4003 35.0574 41.8753 36.0215C41.3502 36.9736 40.8594 37.9258 40.3914 38.878C39.775 37.2831 39.2499 35.6882 38.8161 34.141C40.3115 33.772 41.8867 33.4506 43.519 33.2007ZM33.1888 48.1021C29.148 46.3048 26.534 43.9482 26.534 42.0796C26.534 40.211 29.148 37.8425 33.1888 36.0572C34.1704 35.6168 35.2434 35.224 36.3506 34.8551C37.0012 37.1879 37.8573 39.6159 38.9189 42.1034C37.8687 44.579 37.0241 46.9952 36.3848 49.3161C35.2548 48.9471 34.1818 48.5424 33.1888 48.1021ZM39.3298 65.1101C37.7774 64.1817 37.104 60.6468 37.629 56.1002C37.7546 54.9814 37.9601 53.8031 38.2112 52.601C40.4484 53.1723 42.8912 53.6127 45.4594 53.8983C47.0004 56.1002 48.5985 58.0998 50.2079 59.8494C46.4868 63.4557 42.9939 65.4314 40.6196 65.4314C40.106 65.4195 39.6722 65.3124 39.3298 65.1101ZM66.4052 56.0407C66.9417 60.5873 66.2797 64.1222 64.7387 65.0625C64.3962 65.2767 63.9511 65.3719 63.426 65.3719C61.0632 65.3719 57.5589 63.4081 53.8378 59.8256C55.4358 58.076 57.0338 56.0883 58.552 53.8864C61.1317 53.6008 63.5744 53.1604 65.8117 52.5772C66.0742 53.7793 66.2797 54.9338 66.4052 56.0407ZM70.7998 48.1021C69.8182 48.5424 68.7452 48.9352 67.638 49.3042C66.9874 46.9714 66.1313 44.5433 65.0697 42.0558C66.1199 39.5802 66.9645 37.1641 67.6038 34.8432C68.7338 35.2121 69.8068 35.6168 70.8113 36.0572C74.852 37.8544 77.466 40.211 77.466 42.0796C77.4545 43.9482 74.8406 46.3167 70.7998 48.1021Z" fill="white"/>
<path d="M51.9884 47.5186C54.8694 47.5186 57.2049 45.0834 57.2049 42.0794C57.2049 39.0754 54.8694 36.6401 51.9884 36.6401C49.1075 36.6401 46.772 39.0754 46.772 42.0794C46.772 45.0834 49.1075 47.5186 51.9884 47.5186Z" fill="white"/>
</g>
<defs>
<filter id="filter0_dd_1278_309" x="0.87904" y="0.0736694" width="102.242" height="102.242" filterUnits="userSpaceOnUse" color-interpolation-filters="sRGB">
<feFlood flood-opacity="0" result="BackgroundImageFix"/>
<feColorMatrix in="SourceAlpha" type="matrix" values="0 0 0 0 0 0 0 0 0 0 0 0 0 0 0 0 0 0 127 0" result="hardAlpha"/>
<feOffset dy="9.12096"/>
<feGaussianBlur stdDeviation="4.56048"/>
<feComposite in2="hardAlpha" operator="out"/>
<feColorMatrix type="matrix" values="0 0 0 0 0.027451 0 0 0 0 0.494118 0 0 0 0 0.854902 0 0 0 0.2 0"/>
<feBlend mode="normal" in2="BackgroundImageFix" result="effect1_dropShadow_1278_309"/>
<feColorMatrix in="SourceAlpha" type="matrix" values="0 0 0 0 0 0 0 0 0 0 0 0 0 0 0 0 0 0 127 0" result="hardAlpha"/>
<feOffset dy="9.12096"/>
<feGaussianBlur stdDeviation="4.56048"/>
<feComposite in2="hardAlpha" operator="out"/>
<feColorMatrix type="matrix" values="0 0 0 0 0.0313726 0 0 0 0 0.639216 0 0 0 0 0.901961 0 0 0 0.1 0"/>
<feBlend mode="normal" in2="effect1_dropShadow_1278_309" result="effect2_dropShadow_1278_309"/>
<feBlend mode="normal" in="SourceGraphic" in2="effect2_dropShadow_1278_309" result="shape"/>
</filter>
</defs>
</svg>
