<svg width="64" height="64" viewBox="0 0 64 64" fill="none" xmlns="http://www.w3.org/2000/svg">
<rect width="64" height="64" rx="32" fill="#F59E0B"/>
<path fill-rule="evenodd" clip-rule="evenodd" d="M36.586 22.5861C36.9611 22.2111 37.4697 22.0005 38 22.0005C38.5303 22.0005 39.0389 22.2111 39.414 22.5861L47.414 30.5861C47.7889 30.9611 47.9996 31.4697 47.9996 32.0001C47.9996 32.5304 47.7889 33.039 47.414 33.4141L39.414 41.4141C39.0368 41.7784 38.5316 41.98 38.0072 41.9754C37.4828 41.9709 36.9812 41.7605 36.6104 41.3897C36.2395 41.0189 36.0292 40.5173 36.0247 39.9929C36.0201 39.4685 36.2217 38.9633 36.586 38.5861L41.172 34.0001H18C17.4696 34.0001 16.9609 33.7893 16.5858 33.4143C16.2107 33.0392 16 32.5305 16 32.0001C16 31.4696 16.2107 30.9609 16.5858 30.5858C16.9609 30.2108 17.4696 30.0001 18 30.0001H41.172L36.586 25.4141C36.2111 25.039 36.0004 24.5304 36.0004 24.0001C36.0004 23.4697 36.2111 22.9611 36.586 22.5861Z" fill="white"/>
</svg>
