<svg width="330" height="115" viewBox="0 0 330 115" fill="none" xmlns="http://www.w3.org/2000/svg">
<path d="M9.69642 84.441C10.2474 83.1423 9.64121 81.6427 8.34243 81.0917C7.04365 80.5407 5.54412 81.1469 4.99312 82.4457L9.69642 84.441ZM112.871 80.8915L112.464 83.4134L112.871 80.8915ZM143.836 90.9551L145.467 92.921L143.836 90.9551ZM182.013 73.4668C182.615 72.1909 182.069 70.6685 180.793 70.0663L160.002 60.2527C158.727 59.6505 157.204 60.1965 156.602 61.4724C156 62.7482 156.546 64.2707 157.822 64.8729L176.302 73.5961L167.579 92.077C166.977 93.3528 167.523 94.8753 168.799 95.4775C170.075 96.0797 171.597 95.5336 172.199 94.2578L182.013 73.4668ZM4.99312 82.4457C1.91592 89.6992 0.574804 95.4399 1.06535 99.8187C1.31727 102.068 2.06082 104.03 3.36192 105.614C4.66165 107.197 6.38094 108.235 8.31186 108.864C12.063 110.085 16.8847 109.848 22.0926 108.91C27.3776 107.959 33.4254 106.214 39.8191 104.093C46.2219 101.97 53.057 99.4403 59.9143 96.8988C66.7886 94.351 73.6878 91.7899 80.2871 89.5732C86.8907 87.3551 93.1284 85.5044 98.6695 84.3663C104.25 83.2201 108.919 82.8416 112.464 83.4134L113.278 78.3695C108.824 77.6511 103.438 78.1711 97.6416 79.3617C91.8056 80.5604 85.3442 82.485 78.6603 84.7301C71.972 86.9767 64.9952 89.567 58.1387 92.1082C51.2652 94.6557 44.5147 97.1532 38.2108 99.2439C31.8979 101.338 26.1178 102.994 21.1875 103.882C16.1801 104.783 12.399 104.822 9.89362 104.006C8.69625 103.616 7.8738 103.058 7.31005 102.371C6.74766 101.687 6.30597 100.708 6.14263 99.2499C5.80263 96.215 6.71082 91.4786 9.69642 84.441L4.99312 82.4457ZM112.464 83.4134C132.496 86.6443 146.765 90.3362 154.052 94.4957C157.778 96.6226 158.863 98.4053 158.947 99.6095C159.029 100.801 158.222 102.825 154.425 105.687L157.501 109.767C161.575 106.694 164.316 103.202 164.043 99.2575C163.772 95.3253 160.6 92.3505 156.585 90.0586C148.389 85.3806 133.242 81.5896 113.278 78.3695L112.464 83.4134ZM154.425 105.687C150.808 108.415 147.932 109.146 145.93 108.983C143.996 108.826 142.554 107.817 141.655 106.278C139.802 103.104 140.209 97.2839 145.467 92.921L142.205 88.9893C135.335 94.69 133.936 103.19 137.243 108.854C138.925 111.734 141.805 113.773 145.515 114.075C149.157 114.372 153.249 112.973 157.501 109.767L154.425 105.687ZM145.467 92.921C150.078 89.0951 156.844 85.2668 163.556 82.0092C170.233 78.768 176.69 76.1711 180.565 74.7809L178.841 69.9719C174.803 71.42 168.177 74.087 161.325 77.4129C154.507 80.7223 147.296 84.7642 142.205 88.9893L145.467 92.921Z" fill="url(#paint0_linear_1221_254)"/>
<path d="M20.024 45.392C17.4107 45.392 15.0587 44.944 12.968 44.048C10.8773 43.1147 9.23467 41.808 8.04 40.128C6.84533 38.448 6.248 36.488 6.248 34.248H13.08C13.2293 35.928 13.8827 37.3093 15.04 38.392C16.2347 39.4747 17.896 40.016 20.024 40.016C22.2267 40.016 23.944 39.4933 25.176 38.448C26.408 37.3653 27.024 35.984 27.024 34.304C27.024 32.9973 26.632 31.9333 25.848 31.112C25.1013 30.2907 24.1493 29.656 22.992 29.208C21.872 28.76 20.304 28.2747 18.288 27.752C15.7493 27.08 13.6773 26.408 12.072 25.736C10.504 25.0267 9.16 23.944 8.04 22.488C6.92 21.032 6.36 19.0907 6.36 16.664C6.36 14.424 6.92 12.464 8.04 10.784C9.16 9.104 10.728 7.816 12.744 6.92C14.76 6.024 17.0933 5.576 19.744 5.576C23.5147 5.576 26.5947 6.528 28.984 8.432C31.4107 10.2987 32.7547 12.8747 33.016 16.16H25.96C25.848 14.7413 25.176 13.528 23.944 12.52C22.712 11.512 21.088 11.008 19.072 11.008C17.2427 11.008 15.7493 11.4747 14.592 12.408C13.4347 13.3413 12.856 14.6853 12.856 16.44C12.856 17.6347 13.2107 18.624 13.92 19.408C14.6667 20.1547 15.6 20.752 16.72 21.2C17.84 21.648 19.3707 22.1333 21.312 22.656C23.888 23.3653 25.9787 24.0747 27.584 24.784C29.2267 25.4933 30.608 26.5947 31.728 28.088C32.8853 29.544 33.464 31.504 33.464 33.968C33.464 35.9467 32.9227 37.8133 31.84 39.568C30.7947 41.3227 29.2453 42.7413 27.192 43.824C25.176 44.8693 22.7867 45.392 20.024 45.392ZM54.3809 45.504C51.4689 45.504 48.8369 44.8507 46.4849 43.544C44.1329 42.2 42.2849 40.3333 40.9409 37.944C39.5969 35.5173 38.9249 32.7173 38.9249 29.544C38.9249 26.408 39.6155 23.6267 40.9969 21.2C42.3782 18.7733 44.2635 16.9067 46.6529 15.6C49.0422 14.2933 51.7115 13.64 54.6609 13.64C57.6102 13.64 60.2795 14.2933 62.6689 15.6C65.0582 16.9067 66.9435 18.7733 68.3249 21.2C69.7062 23.6267 70.3969 26.408 70.3969 29.544C70.3969 32.68 69.6875 35.4613 68.2689 37.888C66.8502 40.3147 64.9089 42.2 62.4449 43.544C60.0182 44.8507 57.3302 45.504 54.3809 45.504ZM54.3809 39.96C56.0235 39.96 57.5542 39.568 58.9729 38.784C60.4289 38 61.6049 36.824 62.5009 35.256C63.3969 33.688 63.8449 31.784 63.8449 29.544C63.8449 27.304 63.4155 25.4187 62.5569 23.888C61.6982 22.32 60.5595 21.144 59.1409 20.36C57.7222 19.576 56.1915 19.184 54.5489 19.184C52.9062 19.184 51.3755 19.576 49.9569 20.36C48.5755 21.144 47.4742 22.32 46.6529 23.888C45.8315 25.4187 45.4209 27.304 45.4209 29.544C45.4209 32.8667 46.2609 35.4427 47.9409 37.272C49.6582 39.064 51.8049 39.96 54.3809 39.96ZM83.0918 18.736C84.1745 17.2427 85.6491 16.0293 87.5158 15.096C89.4198 14.1253 91.5291 13.64 93.8438 13.64C96.5691 13.64 99.0331 14.2933 101.236 15.6C103.438 16.9067 105.174 18.7733 106.444 21.2C107.713 23.5893 108.348 26.3333 108.348 29.432C108.348 32.5307 107.713 35.312 106.444 37.776C105.174 40.2027 103.42 42.1067 101.18 43.488C98.9771 44.832 96.5318 45.504 93.8438 45.504C91.4545 45.504 89.3265 45.0373 87.4598 44.104C85.6305 43.1707 84.1745 41.976 83.0918 40.52V45H76.7078V3.56H83.0918V18.736ZM101.852 29.432C101.852 27.304 101.404 25.4747 100.508 23.944C99.6491 22.376 98.4918 21.2 97.0358 20.416C95.6171 19.5947 94.0865 19.184 92.4438 19.184C90.8385 19.184 89.3078 19.5947 87.8518 20.416C86.4331 21.2373 85.2758 22.432 84.3798 24C83.5211 25.568 83.0918 27.416 83.0918 29.544C83.0918 31.672 83.5211 33.5387 84.3798 35.144C85.2758 36.712 86.4331 37.9067 87.8518 38.728C89.3078 39.5493 90.8385 39.96 92.4438 39.96C94.0865 39.96 95.6171 39.5493 97.0358 38.728C98.4918 37.8693 99.6491 36.6373 100.508 35.032C101.404 33.4267 101.852 31.56 101.852 29.432ZM121.045 18.624C121.978 17.056 123.21 15.8427 124.741 14.984C126.309 14.088 128.157 13.64 130.285 13.64V20.248H128.661C126.16 20.248 124.256 20.8827 122.949 22.152C121.68 23.4213 121.045 25.624 121.045 28.76V45H114.661V14.144H121.045V18.624ZM164.433 28.816C164.433 29.9733 164.358 31.0187 164.209 31.952H140.633C140.82 34.416 141.734 36.3947 143.377 37.888C145.02 39.3813 147.036 40.128 149.425 40.128C152.86 40.128 155.286 38.6907 156.705 35.816H163.593C162.66 38.6533 160.961 40.9867 158.497 42.816C156.07 44.608 153.046 45.504 149.425 45.504C146.476 45.504 143.825 44.8507 141.473 43.544C139.158 42.2 137.329 40.3333 135.985 37.944C134.678 35.5173 134.025 32.7173 134.025 29.544C134.025 26.3707 134.66 23.5893 135.929 21.2C137.236 18.7733 139.046 16.9067 141.361 15.6C143.713 14.2933 146.401 13.64 149.425 13.64C152.337 13.64 154.932 14.2747 157.209 15.544C159.486 16.8133 161.26 18.6053 162.529 20.92C163.798 23.1973 164.433 25.8293 164.433 28.816ZM157.769 26.8C157.732 24.448 156.892 22.5627 155.249 21.144C153.606 19.7253 151.572 19.016 149.145 19.016C146.942 19.016 145.057 19.7253 143.489 21.144C141.921 22.5253 140.988 24.4107 140.689 26.8H157.769ZM44.552 63.64C46.9787 63.64 49.144 64.144 51.048 65.152C52.9893 66.16 54.5013 67.6533 55.584 69.632C56.704 71.6107 57.264 74 57.264 76.8V95H50.936V77.752C50.936 74.9893 50.2453 72.88 48.864 71.424C47.4827 69.9307 45.5973 69.184 43.208 69.184C40.8187 69.184 38.9147 69.9307 37.496 71.424C36.1147 72.88 35.424 74.9893 35.424 77.752V95H29.096V77.752C29.096 74.9893 28.4053 72.88 27.024 71.424C25.6427 69.9307 23.7573 69.184 21.368 69.184C18.9787 69.184 17.0747 69.9307 15.656 71.424C14.2747 72.88 13.584 74.9893 13.584 77.752V95H7.2V64.144H13.584V67.672C14.6293 66.4027 15.9547 65.4133 17.56 64.704C19.1653 63.9947 20.8827 63.64 22.712 63.64C25.176 63.64 27.3787 64.1627 29.32 65.208C31.2613 66.2533 32.7547 67.7653 33.8 69.744C34.7333 67.8773 36.1893 66.4027 38.168 65.32C40.1467 64.2 42.2747 63.64 44.552 63.64ZM68.6355 60.056C67.4782 60.056 66.5075 59.664 65.7235 58.88C64.9395 58.096 64.5475 57.1253 64.5475 55.968C64.5475 54.8107 64.9395 53.84 65.7235 53.056C66.5075 52.272 67.4782 51.88 68.6355 51.88C69.7555 51.88 70.7075 52.272 71.4915 53.056C72.2755 53.84 72.6675 54.8107 72.6675 55.968C72.6675 57.1253 72.2755 58.096 71.4915 58.88C70.7075 59.664 69.7555 60.056 68.6355 60.056ZM71.7715 64.144V95H65.3875V64.144H71.7715ZM117.505 63.64C119.932 63.64 122.097 64.144 124.001 65.152C125.942 66.16 127.454 67.6533 128.537 69.632C129.657 71.6107 130.217 74 130.217 76.8V95H123.889V77.752C123.889 74.9893 123.198 72.88 121.817 71.424C120.436 69.9307 118.55 69.184 116.161 69.184C113.772 69.184 111.868 69.9307 110.449 71.424C109.068 72.88 108.377 74.9893 108.377 77.752V95H102.049V77.752C102.049 74.9893 101.358 72.88 99.9771 71.424C98.5958 69.9307 96.7105 69.184 94.3211 69.184C91.9318 69.184 90.0278 69.9307 88.6091 71.424C87.2278 72.88 86.5371 74.9893 86.5371 77.752V95H80.1531V64.144H86.5371V67.672C87.5825 66.4027 88.9078 65.4133 90.5131 64.704C92.1185 63.9947 93.8358 63.64 95.6651 63.64C98.1291 63.64 100.332 64.1627 102.273 65.208C104.214 66.2533 105.708 67.7653 106.753 69.744C107.686 67.8773 109.142 66.4027 111.121 65.32C113.1 64.2 115.228 63.64 117.505 63.64Z" fill="#111827"/>
<defs>
<linearGradient id="paint0_linear_1221_254" x1="-129.775" y1="136.536" x2="174.873" y2="102.124" gradientUnits="userSpaceOnUse">
<stop stop-color="#FFF278"/>
<stop offset="1" stop-color="#F28D2F"/>
</linearGradient>
</defs>
</svg>
