<svg width="104" height="103" viewBox="0 0 104 103" fill="none" xmlns="http://www.w3.org/2000/svg">
<rect x="10" y="0.0736694" width="84" height="84" rx="20" fill="#EFF6FF"/>
<g filter="url(#filter0_dd_1278_323)">
<rect x="10" y="0.0736694" width="84" height="84" rx="20" fill="#00618A" shape-rendering="crispEdges"/>
<path d="M19.3649 56.444H21.5665V47.3339L24.9749 55.2757C25.3771 56.237 25.9276 56.5771 27.0071 56.5771C28.0868 56.5771 28.616 56.237 29.0184 55.2757L32.4266 47.3339V56.444H34.6284V47.3488C34.6284 46.4615 34.2895 46.0325 33.5911 45.8108C31.9187 45.2636 30.7966 45.7368 30.2884 46.92L26.9436 54.758L23.7047 46.92C23.2178 45.7368 22.0746 45.2636 20.4022 45.8108C19.7036 46.0325 19.3649 46.4615 19.3649 47.3488V56.444Z" fill="white"/>
<path d="M36.4584 49.0284H38.6593V54.0474C38.6388 54.3201 38.7428 54.96 39.9489 54.98C40.5642 54.99 44.6979 54.98 44.7365 54.98V49.004H46.9426C46.9527 49.004 46.9404 57.1535 46.9405 57.1882C46.9527 59.1981 44.5606 59.6346 43.458 59.6684H36.5062V58.1164C36.5184 58.1164 43.4529 58.1179 43.4704 58.1161C44.8873 57.9592 44.72 57.2212 44.7198 56.9728V56.3677H40.0403C37.8632 56.3467 36.4767 55.3511 36.4596 54.2057C36.458 54.0995 36.5065 49.0785 36.4584 49.0284Z" fill="white"/>
<path d="M48.64 56.4428H54.9697C55.7106 56.4428 56.4305 56.2802 57.0021 55.9991C57.9546 55.5408 58.4205 54.9198 58.4205 54.1061V52.4203C58.4205 51.7547 57.8912 51.1335 56.8538 50.7196C56.3033 50.4976 55.6259 50.3794 54.9697 50.3794H52.3022C51.4133 50.3794 50.9898 50.0984 50.884 49.4773C50.8628 49.4033 50.8628 49.344 50.8628 49.2702V48.2203C50.8628 48.1611 50.8628 48.1018 50.884 48.0279C50.9898 47.5548 51.2228 47.4215 52.0059 47.3476C52.0695 47.3476 52.1541 47.3327 52.2177 47.3327H58.5051V45.7949H52.3235C51.4344 45.7949 50.9685 45.854 50.5453 45.987C49.2327 46.416 48.6611 47.0963 48.6611 48.2795V49.6252C48.6611 50.6605 49.7832 51.5478 51.6672 51.7547C51.8791 51.7695 52.0906 51.7842 52.3022 51.7842H54.5885C54.6734 51.7842 54.7581 51.7842 54.8215 51.7991C55.5202 51.8584 55.8164 51.9913 56.0283 52.2576C56.1552 52.3905 56.1975 52.5238 56.1975 52.6717V54.0174C56.1975 54.1802 56.0918 54.3873 55.8802 54.5646C55.6895 54.7421 55.372 54.8605 54.9486 54.8901C54.8639 54.8901 54.8004 54.9049 54.7158 54.9049H48.64V56.4428Z" fill="#E48E00"/>
<path d="M72.1531 53.7661C72.1531 55.3484 73.275 56.2359 75.5403 56.4134C75.7518 56.4281 75.9637 56.4428 76.1753 56.4428H81.9124V54.9049H76.1329C74.8416 54.9049 74.3547 54.5646 74.3547 53.7513V45.7949H72.1531V53.7661Z" fill="#E48E00"/>
<path d="M59.824 53.8471V48.3639C59.824 46.9709 60.7575 46.126 62.6029 45.8593C62.7939 45.8298 63.0061 45.8149 63.1969 45.8149H67.376C67.5881 45.8149 67.7792 45.8298 67.9913 45.8593C69.8369 46.126 70.7702 46.9709 70.7702 48.3639V53.8471C70.7702 54.9773 70.3738 55.5821 69.4602 55.9763L71.629 58.0275H69.0726L67.3181 56.3679L65.5517 56.4852H63.1969C62.7939 56.4852 62.3697 56.4258 61.9029 56.2925C60.5029 55.8924 59.824 55.1217 59.824 53.8471ZM62.2003 53.7138C62.2003 53.788 62.2214 53.862 62.2427 53.9509C62.3699 54.5882 62.9427 54.9439 63.8124 54.9439H65.8126L63.9753 53.2058H66.5317L68.1341 54.7216C68.4293 54.5567 68.6238 54.3045 68.6917 53.9806C68.7127 53.9066 68.7127 53.8324 68.7127 53.7584V48.4974C68.7127 48.4381 68.7127 48.3639 68.6917 48.2897C68.5643 47.697 67.9915 47.3563 67.143 47.3563H63.8124C62.8367 47.3563 62.2003 47.8009 62.2003 48.4974V53.7138Z" fill="#E48E00"/>
<path d="M82.6718 45.354C81.3184 45.3155 80.2846 45.4474 79.4008 45.8379C79.1497 45.9489 78.7492 45.9518 78.7082 46.2817C78.8462 46.4333 78.8677 46.6596 78.9774 46.8461C79.1884 47.204 79.5447 47.6834 79.8625 47.9349C80.2099 48.2096 80.5678 48.5035 80.9402 48.7414C81.6025 49.1646 82.3419 49.4063 82.9797 49.8302C83.3555 50.0801 83.7289 50.3949 84.0956 50.6769C84.2768 50.8163 84.3987 51.0332 84.6343 51.1205C84.6343 51.1072 84.6343 51.0937 84.6343 51.0802C84.5105 50.9151 84.4786 50.6881 84.3649 50.5156C84.1983 50.341 84.0315 50.1662 83.8647 49.9914C83.3756 49.3111 82.7546 48.7135 82.0945 48.2172C81.5682 47.8212 80.3901 47.2864 80.1704 46.6445C80.1576 46.6311 80.1449 46.6176 80.1319 46.6041C80.5051 46.5601 80.9421 46.4185 81.2865 46.3219C81.8651 46.1593 82.3822 46.2013 82.9797 46.0397C83.249 45.959 83.5184 45.8782 83.7879 45.7977C83.7879 45.7438 83.7879 45.6903 83.7879 45.6364C83.4858 45.3116 83.2705 44.8818 82.9411 44.5879C82.0795 43.819 81.1389 43.0509 80.1704 42.4103C79.6333 42.055 78.9695 41.8242 78.4003 41.5231C78.2088 41.4219 77.8724 41.3693 77.7459 41.2005C77.4469 40.801 77.284 40.2947 77.0535 39.8294C76.5703 38.8547 76.0959 37.7902 75.668 36.7647C75.3761 36.0654 75.1854 35.3758 74.8214 34.7484C73.0741 31.7381 71.1932 29.9211 68.2796 28.1351C67.6596 27.7553 66.9132 27.6053 66.1244 27.4094C65.7012 27.3825 65.2778 27.3555 64.8545 27.3287C64.5961 27.2155 64.3273 26.8843 64.0849 26.7238C63.1197 26.0848 60.6439 24.695 59.9289 26.5222C59.4775 27.6755 60.6036 28.8009 61.0063 29.3853C61.289 29.7953 61.6509 30.2549 61.8529 30.716C61.9857 31.019 62.0087 31.3228 62.1224 31.6435C62.4022 32.4334 62.6454 33.2927 63.0074 34.0226C63.1903 34.392 63.3919 34.7811 63.6232 35.1114C63.765 35.314 64.0079 35.4033 64.0463 35.7163C63.8087 36.0647 63.7951 36.6056 63.6616 37.047C63.0602 39.0342 63.287 41.5042 64.1619 42.9749C64.4303 43.4263 65.0626 44.3946 65.932 44.0233C66.6925 43.6987 66.5226 42.6928 66.7402 41.8054C66.7894 41.6042 66.7592 41.4563 66.8556 41.3215C66.8556 41.3349 66.8556 41.3484 66.8556 41.3619C67.0865 41.8458 67.3174 42.3296 67.5484 42.8134C68.061 43.6786 68.9708 44.5827 69.7418 45.1928C70.1416 45.5092 70.4564 46.0562 70.9733 46.2412C70.9733 46.2278 70.9733 46.2145 70.9733 46.2008C70.9602 46.2008 70.9475 46.2008 70.9347 46.2008C70.8346 46.0371 70.6779 45.9694 70.55 45.8379C70.2487 45.5286 69.9139 45.1439 69.6648 44.7895C68.9636 43.7919 68.3438 42.7 67.7793 41.5635C67.5096 41.0208 67.2752 40.4221 67.0479 39.8698C66.9603 39.6568 66.9613 39.3349 66.7787 39.2245C66.5298 39.6293 66.1631 39.9565 65.9706 40.4343C65.6627 41.1982 65.6229 42.1298 65.5089 43.0958C65.4413 43.1211 65.4713 43.1037 65.4317 43.136C64.8958 43.0006 64.7074 42.4224 64.5083 41.9264C64.0045 40.6721 63.9109 38.6523 64.3542 37.2084C64.4689 36.8349 64.9873 35.6583 64.7775 35.3132C64.6774 34.9688 64.3468 34.7697 64.1619 34.5065C63.933 34.1812 63.7044 33.753 63.546 33.3774C63.1337 32.3993 62.9412 31.3014 62.5071 30.3129C62.2996 29.8402 61.9487 29.362 61.6605 28.9418C61.3415 28.4764 60.9842 28.1336 60.737 27.5706C60.649 27.3706 60.5295 27.0504 60.66 26.8448C60.7015 26.706 60.7599 26.6481 60.8909 26.6029C61.1141 26.4225 61.7358 26.6629 61.9683 26.7641C62.5854 27.0327 63.1005 27.2885 63.6232 27.6513C63.8742 27.8257 64.1279 28.1629 64.4312 28.2562C64.5466 28.2562 64.6621 28.2562 64.7775 28.2562C65.3193 28.3867 65.9262 28.2967 66.4323 28.4578C67.3268 28.7427 68.1285 29.1858 68.8566 29.6676C71.0747 31.1351 72.8883 33.2242 74.1288 35.7163C74.3284 36.1175 74.4148 36.5005 74.5905 36.9261C74.9452 37.7844 75.392 38.6675 75.7448 39.5068C76.097 40.3442 76.4402 41.1893 76.9379 41.8861C77.1997 42.2524 78.2103 42.4489 78.6696 42.6522C78.9916 42.7949 79.5191 42.9434 79.8241 43.136C80.4067 43.5043 80.9711 43.9426 81.5175 44.3459C81.7906 44.5475 82.63 44.9896 82.6718 45.354Z" fill="white"/>
</g>
<defs>
<filter id="filter0_dd_1278_323" x="0.87904" y="0.0736694" width="102.242" height="102.242" filterUnits="userSpaceOnUse" color-interpolation-filters="sRGB">
<feFlood flood-opacity="0" result="BackgroundImageFix"/>
<feColorMatrix in="SourceAlpha" type="matrix" values="0 0 0 0 0 0 0 0 0 0 0 0 0 0 0 0 0 0 127 0" result="hardAlpha"/>
<feOffset dy="9.12096"/>
<feGaussianBlur stdDeviation="4.56048"/>
<feComposite in2="hardAlpha" operator="out"/>
<feColorMatrix type="matrix" values="0 0 0 0 0 0 0 0 0 0.380392 0 0 0 0 0.541176 0 0 0 0.2 0"/>
<feBlend mode="normal" in2="BackgroundImageFix" result="effect1_dropShadow_1278_323"/>
<feColorMatrix in="SourceAlpha" type="matrix" values="0 0 0 0 0 0 0 0 0 0 0 0 0 0 0 0 0 0 127 0" result="hardAlpha"/>
<feOffset dy="9.12096"/>
<feGaussianBlur stdDeviation="4.56048"/>
<feComposite in2="hardAlpha" operator="out"/>
<feColorMatrix type="matrix" values="0 0 0 0 0 0 0 0 0 0.380392 0 0 0 0 0.541176 0 0 0 0.2 0"/>
<feBlend mode="normal" in2="effect1_dropShadow_1278_323" result="effect2_dropShadow_1278_323"/>
<feBlend mode="normal" in="SourceGraphic" in2="effect2_dropShadow_1278_323" result="shape"/>
</filter>
</defs>
</svg>
