<svg width="48" height="49" viewBox="0 0 48 49" fill="none" xmlns="http://www.w3.org/2000/svg">
<rect y="0.0737305" width="48" height="48" rx="8" fill="white"/>
<path d="M39 14.9962C37.8766 15.4839 36.685 15.804 35.4649 15.9459C36.7358 15.1994 37.7116 14.0175 38.1711 12.6092C36.963 13.3117 35.6412 13.8067 34.2628 14.0727C33.14 12.9006 31.5405 12.1681 29.7702 12.1681C26.3711 12.1681 23.6152 14.8685 23.6152 18.1991C23.6152 18.6719 23.6696 19.1321 23.7745 19.5736C18.6593 19.322 14.1241 16.921 11.0884 13.2721C10.5587 14.1628 10.2552 15.199 10.2552 16.3041C10.2552 18.3966 11.3419 20.2425 12.9933 21.3241C12.0159 21.2942 11.06 21.0355 10.2054 20.5697C10.205 20.595 10.205 20.6202 10.205 20.6456C10.205 23.5677 12.3266 26.0054 15.1421 26.5595C14.2358 26.801 13.2851 26.8364 12.3627 26.6628C13.1459 29.0589 15.4189 30.8025 18.1121 30.8513C16.0057 32.4689 13.3518 33.4331 10.4682 33.4331C9.97137 33.4331 9.48152 33.4045 9 33.3488C11.7238 35.0601 14.959 36.0585 18.4348 36.0585C29.7559 36.0585 35.9466 26.8684 35.9466 18.8985C35.9466 18.637 35.9407 18.3769 35.9288 18.1183C37.1337 17.2647 38.1737 16.2075 39 14.9962Z" fill="#55ACEE"/>
</svg>
